<svg xmlns="http://www.w3.org/2000/svg" width="1407.261" height="701.624"><defs><clipPath id="a"><path d="M0 0h288v288.001H0z"/></clipPath><clipPath id="b"><path d="M145.212 180.103C83.682 145.681 96.856 55.42 96.856 55.42c26.238 12.577 47.814.034 47.814.034s22.498 12.868 47.922-.468c0 0 14.42 89.99-47.38 125.118"/></clipPath><clipPath id="c"><path d="M145.212 180.103C83.682 145.681 96.856 55.42 96.856 55.42c26.238 12.577 47.814.034 47.814.034s22.498 12.868 47.922-.468c0 0 14.42 89.99-47.38 125.118"/></clipPath></defs><path d="M2.007 3.226h1407.261V704.85H2.007z" style="opacity:1;fill:#d7111b;fill-opacity:1;stroke:none;stroke-width:7.87102461;stroke-linecap:butt;stroke-linejoin:miter;stroke-miterlimit:4;stroke-dasharray:none;stroke-dashoffset:14;stroke-opacity:1" transform="translate(-2.007 -3.226)"/><g clip-path="url(#a)" transform="translate(96.567 14.577)scale(1.25)"><path d="M219.473 147.509c-3.497 3.902-7.237 4.471-7.237 4.471 3.984-4.228 11.791-20.979 11.791-20.979 2.114-4.31 12.604-9.596 12.604-9.596 17.118-9.107 12.117-27.891 12.117-27.891-14.109 7.766-15.289 19.516-15.289 19.516-1.219 9.839-7.643 12.686-7.643 12.686 2.276-3.822 4.554-19.517 4.554-19.517 1.708-4.635 8.944-12.279 8.944-12.279 2.602-2.52 6.262-6.749 6.262-6.749 8.294-9.514.569-25.859.569-25.859-13.824 12.117-10.896 30.494-10.896 30.494-.082 4.148-4.31 9.596-4.31 9.596 1.789-10.002-.894-27.241-.894-27.241l1.138-3.66 1.626-4.31c1.626-4.31 2.603-5.041 2.603-5.041 12.197-12.848-1.302-29.6-1.302-29.6-4.147 4.961-6.261 14.069-6.261 14.069-1.464 7.318 2.602 17.89 2.602 17.89.65 2.682-1.22 6.91-1.22 6.91-2.195-14.636-10.815-28.622-10.815-28.622.082-2.765 1.545-4.391 1.545-4.391 8.172-14.393-6.668-30.982-6.668-30.982-6.261 19.841 2.683 29.355 2.683 29.355 2.847 3.415 1.871 5.367 1.871 5.367-8.376-14.312-17.808-21.224-17.808-21.224C196.298 0 178.815 2.765 178.815 2.765c1.342 17.97 20.004 19.923 20.004 19.923 10.408 9.107 15.938 19.515 15.938 19.515-2.44-.976-3.741-2.44-3.741-2.44-10.124-16.425-27.078-13.66-27.078-13.66 6.871 18.58 27.322 18.458 27.322 18.458 5.652.285 7.156 4.147 7.156 4.147 4.716 7.807 7.969 22.525 7.969 22.525-1.301-1.3-3.008-3.375-3.008-3.375-7.888-21.507-24.558-20.695-24.558-20.695 5.123 21.387 21.793 22.688 21.793 22.688 3.09.65 6.424 5.204 6.424 5.204 1.87 12.767 1.056 23.175 1.056 23.175-.081-.813-1.382-3.17-1.382-3.17-1.219-2.278-1.87-7.238-1.87-7.238-2.927-15.044-16.833-17.646-16.833-17.646-2.723 19.435 17.484 26.713 17.484 26.713 5.692 5.042-2.359 27.2-2.359 27.2-.162-.813-.488-3.822-.488-3.822 1.749-23.297-16.018-26.59-16.018-26.59-.123 11.14 1.707 14.962 1.707 14.962 1.749 5.042 10.652 11.547 10.652 11.547 2.196 2.114 2.928 5.774 2.928 5.774-1.382 9.35-14.475 27.159-14.475 27.159-.162-3.984 1.302-6.668 1.302-6.668 9.35-16.914-2.359-27.973-2.359-27.973-11.384 15.044-1.464 26.591-1.464 26.591 1.545 2.846.895 10.164.895 10.164-3.74 5.612-16.832 16.507-16.832 16.507l.081-.487c1.626-4.961 3.171-6.749 3.171-6.749 10.896-12.767.244-27.974.244-27.974-10.083 11.344-5.773 25.127-5.773 25.127 2.764 6.546-.244 11.141-.244 11.141-5.001 5.935-20.574 12.603-20.574 12.603 2.684-3.171 5.937-6.179 5.937-6.179 11.71-9.311 5.773-26.022 5.773-26.022-15.247 8.579-11.466 26.347-11.466 26.347-.487 6.424-5.041 8.051-5.041 8.051-6.668 2.926-16.263 4.96-16.263 4.96.975-1.789 2.683-2.359 2.683-2.359 16.589-9.351 11.709-23.825 11.709-23.825-15.693 6.018-15.287 23.581-15.287 23.581-.163 3.578-3.171 3.741-3.171 3.741l-5.286.732c6.546-4.066 6.018-8.375 6.018-8.375-.732-10.694-14.556-7.238-14.556-7.238s-13.824-3.456-14.556 7.238c0 0-.528 4.309 6.017 8.375l-5.285-.732s-3.009-.163-3.172-3.741c0 0 .407-17.563-15.287-23.581 0 0-4.879 14.474 11.71 23.825 0 0 1.707.57 2.683 2.359 0 0-9.595-2.034-16.263-4.96 0 0-4.554-1.627-5.042-8.051 0 0 3.781-17.768-11.466-26.347 0 0-5.936 16.711 5.774 26.022 0 0 3.253 3.008 5.936 6.179 0 0-15.572-6.668-20.573-12.603 0 0-3.009-4.595-.244-11.141 0 0 4.31-13.783-5.773-25.127 0 0-10.653 15.207.244 27.974 0 0 1.545 1.788 3.171 6.749l.081.487s-13.092-10.895-16.832-16.507c0 0-.65-7.318.894-10.164 0 0 9.921-11.547-1.463-26.591 0 0-11.71 11.059-2.359 27.973 0 0 1.464 2.684 1.302 6.668 0 0-13.093-17.809-14.475-27.159 0 0 .732-3.66 2.927-5.774 0 0 8.905-6.505 10.653-11.547 0 0 1.83-3.822 1.708-14.962 0 0-17.768 3.293-16.02 26.59 0 0-.325 3.009-.488 3.822 0 0-8.05-22.158-2.358-27.2 0 0 20.207-7.278 17.483-26.713 0 0-13.905 2.602-16.832 17.646 0 0-.65 4.96-1.87 7.237 0 0-1.302 2.358-1.383 3.171 0 0-.813-10.408 1.057-23.175 0 0 3.334-4.554 6.424-5.204 0 0 16.67-1.301 21.793-22.688 0 0-16.67-.812-24.557 20.695 0 0-1.708 2.074-3.01 3.375 0 0 3.253-14.718 7.97-22.525 0 0 1.504-3.862 7.155-4.147 0 0 20.452.123 27.323-18.459 0 0-16.954-2.764-27.078 13.662 0 0-1.302 1.463-3.741 2.44 0 0 5.53-10.41 15.938-19.517 0 0 18.662-1.951 20.004-19.922 0 0-17.483-2.765-21.224 17.157 0 0-9.433 6.912-17.808 21.224 0 0-.976-1.952 1.87-5.367 0 0 8.945-9.514 2.684-29.355 0 0-14.84 16.589-6.668 30.982 0 0 1.464 1.626 1.545 4.39 0 0-8.62 13.987-10.815 28.624 0 0-1.87-4.229-1.22-6.912 0 0 4.066-10.571 2.602-17.89 0 0-2.114-9.107-6.261-14.067 0 0-13.499 16.75-1.302 29.599 0 0 .977.732 2.603 5.041l1.626 4.31 1.139 3.66s-2.684 17.239-.895 27.241c0 0-4.228-5.448-4.31-9.596 0 0 2.928-18.377-10.896-30.493 0 0-7.725 16.344.569 25.858 0 0 3.66 4.229 6.261 6.75 0 0 7.237 7.643 8.945 12.278 0 0 2.277 15.695 4.554 19.517 0 0-6.424-2.847-7.644-12.686 0 0-1.179-11.75-15.287-19.516 0 0-5.001 18.784 12.116 27.891 0 0 10.49 5.286 12.604 9.596 0 0 7.806 16.751 11.79 20.979 0 0-3.74-.569-7.237-4.471 0 0-8.293-20.492-24.8-22.118 0 0-.326 20.654 22.524 26.102 0 0 7.4.651 10.978 2.521 0 0 8.863 11.302 16.506 17.483 0 0-8.538-.082-10.57-4.311 0 0-6.425-13.661-27.242-13.172 0 0 3.334 18.459 27.404 18.54 0 0 10.734-.57 13.417 1.3 0 0 13.336 10.165 21.55 13.255 0 0-5.123.651-8.783-.894 0 0-19.435-13.58-33.909-3.985 0 0 7.237 14.719 33.909 8.051 0 0 11.14-1.871 13.255-1.057 0 0 15.856 6.098 20.817 6.831 0 0-5.123 3.171-13.417-.408 0 0-10.978-6.26-23.582 3.823 0 0 10.327 13.091 30.818 2.195 0 0 8.132-5.123 11.954-4.473l5.774.977S110.183 209.226 100.181 215c0 0-2.195.894-.325 1.707 0 0 8.14 3.742 15.052 4.067 0 0 9.832-9.899 12.027-21.385 2.89 12.505 12.605 21.304 12.605 21.304 6.911-.325 14.88-4.147 14.88-4.147 1.871-.814-.325-1.707-.325-1.707-10.002-5.775-21.223-16.67-21.223-16.67l5.773-.977c3.821-.65 11.953 4.473 11.953 4.473 20.492 10.896 30.819-2.195 30.819-2.195-12.604-10.083-23.582-3.823-23.582-3.823-8.294 3.579-13.417.408-13.417.408 4.96-.733 20.817-6.831 20.817-6.831 2.114-.814 13.255 1.057 13.255 1.057 26.672 6.668 33.909-8.051 33.909-8.051-14.475-9.595-33.909 3.985-33.909 3.985-3.659 1.545-8.782.894-8.782.894 8.212-3.09 21.548-13.255 21.548-13.255 2.684-1.87 13.417-1.3 13.417-1.3 24.071-.081 27.405-18.54 27.405-18.54-20.818-.489-27.242 13.172-27.242 13.172-2.033 4.229-10.571 4.311-10.571 4.311 7.644-6.181 16.507-17.483 16.507-17.483 3.578-1.87 10.979-2.521 10.979-2.521 22.849-5.448 22.524-26.102 22.524-26.102-16.508 1.626-24.802 22.118-24.802 22.118M116.607 188.41s-1.057-4.554.407-4.309c0 0 .976-.163.976 1.789 0 0-.203 2.48.813 4.309 0 0 1.545 2.196 1.626 3.09 0 0-2.113.082-3.822-4.879m10.328 10.819c-1.667 0-3.018-.911-3.018-2.034 0-1.125 1.351-2.035 3.018-2.035s3.017.91 3.017 2.035c0 1.123-1.351 2.034-3.017 2.034m.002-6.457c-1.854 0-3.356-.729-3.356-1.628s1.502-1.627 3.356-1.627 3.355.728 3.355 1.627-1.501 1.628-3.355 1.628m-.002-7.528c-2.228 0-4.034-.727-4.034-1.626s1.806-1.628 4.034-1.628 4.034.729 4.034 1.628-1.806 1.626-4.034 1.626m6.505 8.045c.082-.894 1.627-3.09 1.627-3.09 1.016-1.829.813-4.309.813-4.309 0-1.952.976-1.789.976-1.789 1.464-.245.406 4.309.406 4.309-1.708 4.961-3.822 4.879-3.822 4.879" style="fill:#fff2b6;fill-rule:nonzero;stroke:none" transform="translate(18.141 43.248)"/><path fill="none" d="M288 144c0 79.529-64.472 144.001-144 144.001C64.47 288.001 0 223.529 0 144S64.47 0 144 0c79.528 0 144 64.471 144 144" style="fill:#e20010;fill-opacity:0;fill-rule:nonzero;stroke:none"/><path d="M219.473 147.509c-3.497 3.902-7.237 4.471-7.237 4.471 3.984-4.228 11.791-20.979 11.791-20.979 2.114-4.31 12.604-9.596 12.604-9.596 17.118-9.107 12.117-27.891 12.117-27.891-14.109 7.766-15.289 19.516-15.289 19.516-1.219 9.839-7.643 12.686-7.643 12.686 2.276-3.822 4.554-19.517 4.554-19.517 1.708-4.635 8.944-12.279 8.944-12.279 2.602-2.52 6.262-6.749 6.262-6.749 8.294-9.514.569-25.859.569-25.859-13.824 12.117-10.896 30.494-10.896 30.494-.082 4.148-4.31 9.596-4.31 9.596 1.789-10.002-.894-27.241-.894-27.241l1.138-3.66 1.626-4.31c1.626-4.31 2.603-5.041 2.603-5.041 12.197-12.848-1.302-29.6-1.302-29.6-4.147 4.961-6.261 14.069-6.261 14.069-1.464 7.318 2.602 17.89 2.602 17.89.65 2.682-1.22 6.91-1.22 6.91-2.195-14.636-10.815-28.622-10.815-28.622.082-2.765 1.545-4.391 1.545-4.391 8.172-14.393-6.668-30.982-6.668-30.982-6.261 19.841 2.683 29.355 2.683 29.355 2.847 3.415 1.871 5.367 1.871 5.367-8.376-14.312-17.808-21.224-17.808-21.224C196.298 0 178.815 2.765 178.815 2.765c1.342 17.97 20.004 19.923 20.004 19.923 10.408 9.107 15.938 19.515 15.938 19.515-2.44-.976-3.741-2.44-3.741-2.44-10.124-16.425-27.078-13.66-27.078-13.66 6.871 18.58 27.322 18.458 27.322 18.458 5.652.285 7.156 4.147 7.156 4.147 4.716 7.807 7.969 22.525 7.969 22.525-1.301-1.3-3.008-3.375-3.008-3.375-7.888-21.507-24.558-20.695-24.558-20.695 5.123 21.387 21.793 22.688 21.793 22.688 3.09.65 6.424 5.204 6.424 5.204 1.87 12.767 1.056 23.175 1.056 23.175-.081-.813-1.382-3.17-1.382-3.17-1.219-2.278-1.87-7.238-1.87-7.238-2.927-15.044-16.833-17.646-16.833-17.646-2.723 19.435 17.484 26.713 17.484 26.713 5.692 5.042-2.359 27.2-2.359 27.2-.162-.813-.488-3.822-.488-3.822 1.749-23.297-16.018-26.59-16.018-26.59-.123 11.14 1.707 14.962 1.707 14.962 1.749 5.042 10.652 11.547 10.652 11.547 2.196 2.114 2.928 5.774 2.928 5.774-1.382 9.35-14.475 27.159-14.475 27.159-.162-3.984 1.302-6.668 1.302-6.668 9.35-16.914-2.359-27.973-2.359-27.973-11.384 15.044-1.464 26.591-1.464 26.591 1.545 2.846.895 10.164.895 10.164-3.74 5.612-16.832 16.507-16.832 16.507l.081-.487c1.626-4.961 3.171-6.749 3.171-6.749 10.896-12.767.244-27.974.244-27.974-10.083 11.344-5.773 25.127-5.773 25.127 2.764 6.546-.244 11.141-.244 11.141-5.001 5.935-20.574 12.603-20.574 12.603 2.684-3.171 5.937-6.179 5.937-6.179 11.71-9.311 5.773-26.022 5.773-26.022-15.247 8.579-11.466 26.347-11.466 26.347-.487 6.424-5.041 8.051-5.041 8.051-6.668 2.926-16.263 4.96-16.263 4.96.975-1.789 2.683-2.359 2.683-2.359 16.589-9.351 11.709-23.825 11.709-23.825-15.693 6.018-15.287 23.581-15.287 23.581-.163 3.578-3.171 3.741-3.171 3.741l-5.286.732c6.546-4.066 6.018-8.375 6.018-8.375-.732-10.694-14.556-7.238-14.556-7.238s-13.824-3.456-14.556 7.238c0 0-.528 4.309 6.017 8.375l-5.285-.732s-3.009-.163-3.172-3.741c0 0 .407-17.563-15.287-23.581 0 0-4.879 14.474 11.71 23.825 0 0 1.707.57 2.683 2.359 0 0-9.595-2.034-16.263-4.96 0 0-4.554-1.627-5.042-8.051 0 0 3.781-17.768-11.466-26.347 0 0-5.936 16.711 5.774 26.022 0 0 3.253 3.008 5.936 6.179 0 0-15.572-6.668-20.573-12.603 0 0-3.009-4.595-.244-11.141 0 0 4.31-13.783-5.773-25.127 0 0-10.653 15.207.244 27.974 0 0 1.545 1.788 3.171 6.749l.081.487s-13.092-10.895-16.832-16.507c0 0-.65-7.318.894-10.164 0 0 9.921-11.547-1.463-26.591 0 0-11.71 11.059-2.359 27.973 0 0 1.464 2.684 1.302 6.668 0 0-13.093-17.809-14.475-27.159 0 0 .732-3.66 2.927-5.774 0 0 8.905-6.505 10.653-11.547 0 0 1.83-3.822 1.708-14.962 0 0-17.768 3.293-16.02 26.59 0 0-.325 3.009-.488 3.822 0 0-8.05-22.158-2.358-27.2 0 0 20.207-7.278 17.483-26.713 0 0-13.905 2.602-16.832 17.646 0 0-.65 4.96-1.87 7.237 0 0-1.302 2.358-1.383 3.171 0 0-.813-10.408 1.057-23.175 0 0 3.334-4.554 6.424-5.204 0 0 16.67-1.301 21.793-22.688 0 0-16.67-.812-24.557 20.695 0 0-1.708 2.074-3.01 3.375 0 0 3.253-14.718 7.97-22.525 0 0 1.504-3.862 7.155-4.147 0 0 20.452.123 27.323-18.459 0 0-16.954-2.764-27.078 13.662 0 0-1.302 1.463-3.741 2.44 0 0 5.53-10.41 15.938-19.517 0 0 18.662-1.951 20.004-19.922 0 0-17.483-2.765-21.224 17.157 0 0-9.433 6.912-17.808 21.224 0 0-.976-1.952 1.87-5.367 0 0 8.945-9.514 2.684-29.355 0 0-14.84 16.589-6.668 30.982 0 0 1.464 1.626 1.545 4.39 0 0-8.62 13.987-10.815 28.624 0 0-1.87-4.229-1.22-6.912 0 0 4.066-10.571 2.602-17.89 0 0-2.114-9.107-6.261-14.067 0 0-13.499 16.75-1.302 29.599 0 0 .977.732 2.603 5.041l1.626 4.31 1.139 3.66s-2.684 17.239-.895 27.241c0 0-4.228-5.448-4.31-9.596 0 0 2.928-18.377-10.896-30.493 0 0-7.725 16.344.569 25.858 0 0 3.66 4.229 6.261 6.75 0 0 7.237 7.643 8.945 12.278 0 0 2.277 15.695 4.554 19.517 0 0-6.424-2.847-7.644-12.686 0 0-1.179-11.75-15.287-19.516 0 0-5.001 18.784 12.116 27.891 0 0 10.49 5.286 12.604 9.596 0 0 7.806 16.751 11.79 20.979 0 0-3.74-.569-7.237-4.471 0 0-8.293-20.492-24.8-22.118 0 0-.326 20.654 22.524 26.102 0 0 7.4.651 10.978 2.521 0 0 8.863 11.302 16.506 17.483 0 0-8.538-.082-10.57-4.311 0 0-6.425-13.661-27.242-13.172 0 0 3.334 18.459 27.404 18.54 0 0 10.734-.57 13.417 1.3 0 0 13.336 10.165 21.55 13.255 0 0-5.123.651-8.783-.894 0 0-19.435-13.58-33.909-3.985 0 0 7.237 14.719 33.909 8.051 0 0 11.14-1.871 13.255-1.057 0 0 15.856 6.098 20.817 6.831 0 0-5.123 3.171-13.417-.408 0 0-10.978-6.26-23.582 3.823 0 0 10.327 13.091 30.818 2.195 0 0 8.132-5.123 11.954-4.473l5.774.977S110.183 209.226 100.181 215c0 0-2.195.894-.325 1.707 0 0 8.14 3.742 15.052 4.067 0 0 9.832-9.899 12.027-21.385 2.89 12.505 12.605 21.304 12.605 21.304 6.911-.325 14.88-4.147 14.88-4.147 1.871-.814-.325-1.707-.325-1.707-10.002-5.775-21.223-16.67-21.223-16.67l5.773-.977c3.821-.65 11.953 4.473 11.953 4.473 20.492 10.896 30.819-2.195 30.819-2.195-12.604-10.083-23.582-3.823-23.582-3.823-8.294 3.579-13.417.408-13.417.408 4.96-.733 20.817-6.831 20.817-6.831 2.114-.814 13.255 1.057 13.255 1.057 26.672 6.668 33.909-8.051 33.909-8.051-14.475-9.595-33.909 3.985-33.909 3.985-3.659 1.545-8.782.894-8.782.894 8.212-3.09 21.548-13.255 21.548-13.255 2.684-1.87 13.417-1.3 13.417-1.3 24.071-.081 27.405-18.54 27.405-18.54-20.818-.489-27.242 13.172-27.242 13.172-2.033 4.229-10.571 4.311-10.571 4.311 7.644-6.181 16.507-17.483 16.507-17.483 3.578-1.87 10.979-2.521 10.979-2.521 22.849-5.448 22.524-26.102 22.524-26.102-16.508 1.626-24.802 22.118-24.802 22.118M116.607 188.41s-1.057-4.554.407-4.309c0 0 .976-.163.976 1.789 0 0-.203 2.48.813 4.309 0 0 1.545 2.196 1.626 3.09 0 0-2.113.082-3.822-4.879m10.328 10.819c-1.667 0-3.018-.911-3.018-2.034 0-1.125 1.351-2.035 3.018-2.035s3.017.91 3.017 2.035c0 1.123-1.351 2.034-3.017 2.034m.002-6.457c-1.854 0-3.356-.729-3.356-1.628s1.502-1.627 3.356-1.627 3.355.728 3.355 1.627-1.501 1.628-3.355 1.628m-.002-7.528c-2.228 0-4.034-.727-4.034-1.626s1.806-1.628 4.034-1.628 4.034.729 4.034 1.628-1.806 1.626-4.034 1.626m6.505 8.045c.082-.894 1.627-3.09 1.627-3.09 1.016-1.829.813-4.309.813-4.309 0-1.952.976-1.789.976-1.789 1.464-.245.406 4.309.406 4.309-1.708 4.961-3.822 4.879-3.822 4.879" style="fill:#ffec00;fill-rule:nonzero;stroke:none" transform="translate(18.141 43.248)"/><path d="M61.53 125.118C0 90.695 13.173.434 13.173.434 39.412 13.01 60.988.467 60.988.467S83.486 13.336 108.91 0c0 0 14.42 89.99-47.38 125.118" style="fill:#ffec00;fill-rule:nonzero;stroke:none" transform="translate(83.682 54.985)"/><g clip-path="url(#b)"><path d="M0 0v64.13" style="fill:none;stroke:#fff;stroke-width:1.30105996;stroke-linecap:butt;stroke-linejoin:miter;stroke-dasharray:none" transform="translate(100.785 56.741)"/><path d="M0 0v77.31" style="fill:none;stroke:#fff;stroke-width:1.30105996;stroke-linecap:butt;stroke-linejoin:miter;stroke-dasharray:none" transform="translate(106.674 58.892)"/><path d="M0 0v87.23" style="fill:none;stroke:#fff;stroke-width:1.30105996;stroke-linecap:butt;stroke-linejoin:miter;stroke-dasharray:none" transform="translate(112.564 60.14)"/><path d="M0 0v96.116" style="fill:none;stroke:#fff;stroke-width:1.30105996;stroke-linecap:butt;stroke-linejoin:miter;stroke-dasharray:none" transform="translate(118.452 60.8)"/><path d="M0 0v103.72" style="fill:none;stroke:#fff;stroke-width:1.30105996;stroke-linecap:butt;stroke-linejoin:miter;stroke-dasharray:none" transform="translate(124.386 60.8)"/><path d="M0 0v110.396" style="fill:none;stroke:#fff;stroke-width:1.33808005;stroke-linecap:butt;stroke-linejoin:miter;stroke-dasharray:none" transform="translate(130.228 60.15)"/><path d="M0 0v117.813" style="fill:none;stroke:#fff;stroke-width:1.38231003;stroke-linecap:butt;stroke-linejoin:miter;stroke-dasharray:none" transform="translate(136.347 57.926)"/><path d="M0 0v122.912" style="fill:none;stroke:#fff;stroke-width:1.30105996;stroke-linecap:butt;stroke-linejoin:miter;stroke-dasharray:none" transform="translate(141.725 56.165)"/><path d="M0 0v67.873" style="fill:none;stroke:#fff;stroke-width:1.33846998;stroke-linecap:butt;stroke-linejoin:miter;stroke-dasharray:none" transform="translate(188.13 56.741)"/><path d="M0 0v80.172" style="fill:none;stroke:#fff;stroke-width:1.30105996;stroke-linecap:butt;stroke-linejoin:miter;stroke-dasharray:none" transform="translate(182.24 58.892)"/><path d="M0 0v90.644" style="fill:none;stroke:#fff;stroke-width:1.30105996;stroke-linecap:butt;stroke-linejoin:miter;stroke-dasharray:none" transform="translate(176.352 60.14)"/><path d="M0 0v98.318" style="fill:none;stroke:#fff;stroke-width:1.30105996;stroke-linecap:butt;stroke-linejoin:miter;stroke-dasharray:none" transform="translate(170.683 60.91)"/><path d="M0 0v103.72" style="fill:none;stroke:#fff;stroke-width:1.30105996;stroke-linecap:butt;stroke-linejoin:miter;stroke-dasharray:none" transform="translate(164.859 60.8)"/><path d="M0 0v110.396" style="fill:none;stroke:#fff;stroke-width:1.33808005;stroke-linecap:butt;stroke-linejoin:miter;stroke-dasharray:none" transform="translate(158.853 59.986)"/><path d="M0 0v117.813" style="fill:none;stroke:#fff;stroke-width:1.38231003;stroke-linecap:butt;stroke-linejoin:miter;stroke-dasharray:none" transform="translate(153.118 57.926)"/></g><g clip-path="url(#c)"><path d="M0 0v64.13" style="fill:none;stroke:#fff;stroke-width:1.30105996;stroke-linecap:butt;stroke-linejoin:miter;stroke-dasharray:none" transform="translate(100.785 56.741)"/><path d="M0 0v77.31" style="fill:none;stroke:#fff;stroke-width:1.30105996;stroke-linecap:butt;stroke-linejoin:miter;stroke-dasharray:none" transform="translate(106.674 58.892)"/><path d="M0 0v87.23" style="fill:none;stroke:#fff;stroke-width:1.30105996;stroke-linecap:butt;stroke-linejoin:miter;stroke-dasharray:none" transform="translate(112.564 60.14)"/><path d="M0 0v96.116" style="fill:none;stroke:#fff;stroke-width:1.30105996;stroke-linecap:butt;stroke-linejoin:miter;stroke-dasharray:none" transform="translate(118.452 60.8)"/><path d="M0 0v103.72" style="fill:none;stroke:#fff;stroke-width:1.30105996;stroke-linecap:butt;stroke-linejoin:miter;stroke-dasharray:none" transform="translate(124.386 60.8)"/><path d="M0 0v110.396" style="fill:none;stroke:#fff;stroke-width:1.33808005;stroke-linecap:butt;stroke-linejoin:miter;stroke-dasharray:none" transform="translate(130.228 60.15)"/><path d="M0 0v117.813" style="fill:none;stroke:#fff;stroke-width:1.38231003;stroke-linecap:butt;stroke-linejoin:miter;stroke-dasharray:none" transform="translate(136.347 57.926)"/><path d="M0 0v122.912" style="fill:none;stroke:#fff;stroke-width:1.30105996;stroke-linecap:butt;stroke-linejoin:miter;stroke-dasharray:none" transform="translate(141.725 56.165)"/><path d="M0 0v67.873" style="fill:none;stroke:#fff;stroke-width:1.33846998;stroke-linecap:butt;stroke-linejoin:miter;stroke-dasharray:none" transform="translate(188.13 56.741)"/><path d="M0 0v80.172" style="fill:none;stroke:#fff;stroke-width:1.30105996;stroke-linecap:butt;stroke-linejoin:miter;stroke-dasharray:none" transform="translate(182.24 58.892)"/><path d="M0 0v90.644" style="fill:none;stroke:#fff;stroke-width:1.30105996;stroke-linecap:butt;stroke-linejoin:miter;stroke-dasharray:none" transform="translate(176.352 60.14)"/><path d="M0 0v98.318" style="fill:none;stroke:#fff;stroke-width:1.30105996;stroke-linecap:butt;stroke-linejoin:miter;stroke-dasharray:none" transform="translate(170.683 60.91)"/><path d="M0 0v103.72" style="fill:none;stroke:#fff;stroke-width:1.30105996;stroke-linecap:butt;stroke-linejoin:miter;stroke-dasharray:none" transform="translate(164.859 60.8)"/><path d="M0 0v110.396" style="fill:none;stroke:#fff;stroke-width:1.33808005;stroke-linecap:butt;stroke-linejoin:miter;stroke-dasharray:none" transform="translate(158.853 59.986)"/><path d="M0 0v117.813" style="fill:none;stroke:#fff;stroke-width:1.38231003;stroke-linecap:butt;stroke-linejoin:miter;stroke-dasharray:none" transform="translate(153.118 57.926)"/><path d="M0 0v122.912" style="fill:none;stroke:#fff;stroke-width:1.30105996;stroke-linecap:butt;stroke-linejoin:miter;stroke-dasharray:none" transform="translate(147.855 56.165)"/></g><path d="M0 50.15 91.547 0s.47 14.961-1.353 26.587L10.668 74.64S4.965 66.32 0 50.15" style="fill:#fff;fill-rule:nonzero;stroke:none" transform="translate(102.424 73.835)"/><path d="M101.487 1.123c.574 2.914.884 5.923.884 9.006 0 25.575-20.767 46.306-46.383 46.306S9.607 35.704 9.607 10.129c0-3.472-.131-6.876.594-10.129C3.461 9.096 0 20.33 0 32.464c0 30.38 24.988 54.906 55.712 55.007 31.414.105 55.712-24.627 55.712-55.007 0-11.651-3.679-22.447-9.937-31.341" style="fill:#369d27;fill-rule:nonzero;stroke:none" transform="translate(89.355 124.486)"/><path d="M55.844 6.153a39 39 0 0 0-.284 1.87 24 24 0 0 1-1.504-.406l.162-1.79a51 51 0 0 1 1.626.326m-8.578-4.96-.041 1.626 1.626.163.04-1.749zm-25.86 21.996.244-1.748 1.75.081.203-2.48-2.4-.122-.121 1.87-2.034-.04.082 2.276zm14.435 3.862 1.707 1.057.488-1.748 1.382.691.488-1.87-1.708-.772-.406 1.585-1.3-.406zM6.729 37.081c-5.53 11.343 4.208 9.676 4.208 9.676 6.323-1.342 5.997-5.651 5.997-5.651-6.607 5.224-9.066 2.601-9.066 2.601-3.924-3.76 3.171-9.595 3.171-9.595l-1.301-2.033c-.65 1.992-3.781 2.887-3.781 2.887-3.334.752-4.025 1.789-4.025 1.789C0 39.133 3.436 40.374 3.436 40.374c-1.464-2.887 3.293-3.294 3.293-3.294m18.663-4.012c-4.92 3.05-7.279 1.626-7.279 1.626.095 2.94-3.862 3.74-3.862 3.74-1.282.272-1.748-1.788-1.748-1.788 7.707-1.257 1.87-5.53 1.87-5.53l.813-1.667s.19.237 2.602 2.724c2.805 2.893 8.995-2.892 8.995-2.892 2.023-2.083.357-2.393.357-2.393-2.359 4.228-4.513 2.44-4.513 2.44-2.521-2.074 0-4.676 0-4.676 2.861-2.693 6.139 1.22 6.139 1.22 2.688 3.47-3.374 7.196-3.374 7.196m.015-7.205s-.93-.688-1.597.182c0 0-.89 1.193.202 1.335 0 0 1.133 0 1.395-1.517M40.283 14.32s.711-1.805-1.345-2.167c0 0-2.351-.482-3.456 2.498 0 0-1.923 4.511 1.214 4.36 0 0 4.367-.604 1.766 1.545 0 0-7.5 5.474-8.633-.992 0 0-1.558 9.25 7.198 4.579 0 0 4.58-1.932 2.98-5.794 0 0-.496-1.49-1.765-1.325 0 0-2.72.67-1.71-1.82 0 0 .607-1.877 2.152-.497 0 0 1.057 1.01 1.6-.387m19.41-6.84-.84 2.06s1.738 1.407.813 2.115c0 0-1.355.894-4.554-.244 0 0-2.981-1.22-6.505-2.196 0 0-1.707-.433-.542-1.3l6.261-5.178S54.49.542 54.57 0c0 0-8.403 5.99-8.267 7.4l.054.624.271 1.49s.299 1.138 2.305 1.762l2.004.623s1.574.38.788.895c0 0-5.619 1.633-5.964 8.403 0 0-.143.874-.949.894 0 0-1.44.287-1.41-2.412 0 0 .028-.542-.134-.488 0 0-1.45 2.223.108 4.174 0 0 2.121 2.508 3.97-.623 0 0 .508-.915.57-3.03 0 0-.041-3.11 3.558-5.285 0 0 1.036-.57 1.578-1.498 0 0 .217-.243 1.302.028 0 0 4.384 1.32 6.016-.055 0 0 2.025-1.43-.677-5.42m-5.475-1.653-.162 1.789s.934.284 1.504.406c0 0 .08-.69.284-1.87 0 0-.732-.162-1.626-.325m-6.952-4.635-.041 1.626 1.626.163.04-1.749zM21.406 23.19l.244-1.748 1.75.081.203-2.48-2.4-.122-.121 1.87-2.034-.04.082 2.276zm14.435 3.862 1.707 1.057.488-1.748 1.382.691.488-1.87-1.708-.772-.406 1.585-1.3-.406zM6.729 37.081c-5.53 11.343 4.208 9.676 4.208 9.676 6.323-1.342 5.997-5.651 5.997-5.651-6.607 5.224-9.066 2.601-9.066 2.601-3.924-3.76 3.171-9.595 3.171-9.595l-1.301-2.033c-.65 1.992-3.781 2.887-3.781 2.887-3.334.752-4.025 1.789-4.025 1.789C0 39.133 3.436 40.374 3.436 40.374c-1.464-2.887 3.293-3.294 3.293-3.294m18.663-4.012c-4.92 3.05-7.279 1.626-7.279 1.626.095 2.94-3.862 3.74-3.862 3.74-1.282.272-1.748-1.788-1.748-1.788 7.707-1.257 1.87-5.53 1.87-5.53l.813-1.667s.19.237 2.602 2.724c2.805 2.893 8.995-2.892 8.995-2.892 2.023-2.083.357-2.393.357-2.393-2.359 4.228-4.513 2.44-4.513 2.44-2.521-2.074 0-4.676 0-4.676 2.861-2.693 6.139 1.22 6.139 1.22 2.688 3.47-3.374 7.196-3.374 7.196m.015-7.205s-.93-.688-1.597.182c0 0-.89 1.193.202 1.335 0 0 1.133 0 1.395-1.517M40.283 14.32s.711-1.805-1.345-2.167c0 0-2.351-.482-3.456 2.498 0 0-1.923 4.511 1.214 4.36 0 0 4.367-.604 1.766 1.545 0 0-7.5 5.474-8.633-.992 0 0-1.558 9.25 7.198 4.579 0 0 4.58-1.932 2.98-5.794 0 0-.496-1.49-1.765-1.325 0 0-2.72.67-1.71-1.82 0 0 .607-1.877 2.152-.497 0 0 1.057 1.01 1.6-.387m19.41-6.84-.84 2.06s1.738 1.407.813 2.115c0 0-1.355.894-4.554-.244 0 0-2.981-1.22-6.505-2.196 0 0-1.707-.433-.542-1.3l6.261-5.178S54.49.542 54.57 0c0 0-8.403 5.99-8.267 7.4l.054.624.271 1.49s.299 1.138 2.305 1.762l2.004.623s1.574.38.788.895c0 0-5.619 1.633-5.964 8.403 0 0-.143.874-.949.894 0 0-1.44.287-1.41-2.412 0 0 .028-.542-.134-.488 0 0-1.45 2.223.108 4.174 0 0 2.121 2.508 3.97-.623 0 0 .508-.915.57-3.03 0 0-.041-3.11 3.558-5.285 0 0 1.036-.57 1.578-1.498 0 0 .217-.243 1.302.028 0 0 4.384 1.32 6.016-.055 0 0 2.025-1.43-.677-5.42" style="fill:#ffec00;fill-rule:nonzero;stroke:none" transform="translate(120.62 88.379)"/></g></svg>