<svg xmlns="http://www.w3.org/2000/svg" width="800" height="400"><path d="M-.135 200.54V.54h800v400h-800z" style="fill:#da251d"/><path d="M388.598 305.041c-4.153-.431-7.776-1.012-8.052-1.291s-1.743-.509-3.26-.51c-1.517-.003-3.63-.46-4.694-1.014-1.065-.556-2.64-1.01-3.5-1.01s-2.02-.456-2.577-1.013c-.557-.558-1.368-1.014-1.802-1.014s-1.595-.42-2.582-.935c-.986-.514-3.48-1.71-5.543-2.657-2.062-.947-5.33-2.786-7.264-4.087-1.933-1.3-4.122-2.558-4.865-2.794s-1.35-.712-1.35-1.059c0-.346-.33-.63-.732-.63-.76 0-6.87-4.688-7.264-5.574-.124-.279-.6-.507-1.058-.507-.892 0-9.866-8.89-9.866-9.774 0-.173-.836-1.193-1.858-2.266s-2.314-2.639-2.872-3.48a86 86 0 0 0-2.08-2.97C313.451 257.145 310 251.75 310 250.92c0-.537-.273-1.145-.606-1.35-.968-.6-3.448-5.707-3.448-7.103 0-.7-.25-1.376-.556-1.5-.533-.216-3.25-8.401-4.896-14.752-1.708-6.592-2.242-12.322-2.237-23.986.007-14.132.717-19.84 3.583-28.786 1.144-3.57 2.079-6.99 2.079-7.604s.608-2.25 1.351-3.637c.744-1.386 1.352-2.905 1.352-3.375s.304-.855.675-.855.676-.586.676-1.303.456-1.76 1.013-2.317c.558-.557 1.014-1.38 1.014-1.826 0-.448.603-1.79 1.34-2.982l1.341-2.17-2.971-2.133c-1.634-1.174-3.465-2.134-4.067-2.134s-1.834-.483-2.735-1.074c-2.945-1.93-18.157-.687-27.15 2.218-2.896.935-3.681.978-4.56.248-.585-.485-1.063-1.167-1.063-1.515 0-.766 4.88-5.194 16.25-14.742 4.961-4.166 6.047-5.277 6.047-6.185 0-1.302-5.001-5.633-8.516-7.375-2.668-1.322-4.353-1.64-8.713-1.64-5.313-.003-8.36.931-12.709 3.895-1.724 1.175-3.17-.939-3.17-4.635 0-2.349-.411-3.255-2.365-5.208-1.301-1.302-2.364-3.049-2.364-3.886 0-1.902 5.544-7.274 8.017-7.766.979-.195 2.714-.648 3.855-1.007 2.816-.885 10.124-.824 13.08.11 5.685 1.796 14.334 6.855 18.582 10.87.769.726 2.197 1.74 3.174 2.251.977.513 1.956 1.399 2.175 1.97.635 1.655 2.104 1.23 5.766-1.664 1.88-1.487 3.732-2.703 4.115-2.703a.69.69 0 0 0 .695-.675c0-.941 2.261-.847 3.243.135.5.499.811 2.946.811 6.364 0 3.432.365 6.284.955 7.466a280 280 0 0 1 2.196 4.545c.683 1.447 2.188 3.65 3.345 4.895l2.103 2.263 2.288-2.74c1.259-1.508 3.163-3.206 4.23-3.774 1.755-.933 2.048-.928 3.023.047.99.99.97 1.284-.232 3.518-.722 1.34-1.702 2.586-2.178 2.769-.476.182-.865.765-.865 1.294 0 .53-.456 1.138-1.014 1.352-.557.213-1.013.639-1.013.944 0 .956 18.887 19.493 19.254 18.898.192-.31.146-13.927-.102-30.26-.424-27.953-.52-29.677-1.646-29.383-.658.172-1.36.74-1.56 1.26-.503 1.313-4.211 1.217-4.725-.122-.226-.588-.41-4.069-.41-7.736v-6.667l2.496-1.892c5.886-4.463 6.358-5.11 5.459-7.494-.45-1.193-1.024-2.169-1.273-2.169-.25 0-.655-.797-.9-1.77-.244-.975-.885-2.213-1.424-2.752-1.315-1.315-1.234-3.033.29-6.099a470 470 0 0 0 3.547-7.416c2.994-6.391 4.744-7.115 6.596-2.73.508 1.203 1.948 4.332 3.2 6.954 2.4 5.02 2.979 9.573 1.434 11.262-1.377 1.507-3.209 5.27-3.209 6.594 0 .742 1.466 2.204 3.686 3.678 2.028 1.346 3.877 2.754 4.108 3.129.498.805.905 14.105.47 15.332-.458 1.29-3.453 1.007-5.377-.506-.945-.744-1.981-1.352-2.302-1.352-.699 0-.752 18.831-.135 48.324l.449 21.516 3.732 4.438c2.053 2.441 4.131 4.682 4.618 4.979s.886.819.886 1.16.836 1.515 1.858 2.611c5.406 5.8 8.953 9.983 8.953 10.561 0 .182.532.886 1.182 1.566 1.302 1.36 2.544 2.842 6.59 7.858 1.485 1.843 3.217 3.88 3.847 4.525 2.917 2.987 3.975 8.022 1.68 7.993-2.88-.037-8.688-3.4-14.9-8.625-1.644-1.383-3.986-3.274-5.207-4.203s-3.259-2.601-4.53-3.716a555 555 0 0 0-4.101-3.56 100 100 0 0 1-2.973-2.652c-1.121-1.061-1.185-.823-1.224 4.573l-.174 24.274c-.074 10.22-.392 19.113-.707 19.764-.415.856-1.382 1.182-3.502 1.182-1.61 0-3.125-.318-3.365-.706s-.395-5.329-.346-10.98c.05-5.65-.123-18.33-.384-28.179l-.473-17.905-2.154-2.027c-2.883-2.713-5.776-5.068-6.228-5.068-.202 0-1.497-.988-2.879-2.196-3.319-2.902-6.385-5.416-7.624-6.25-.553-.371-2.766-2.043-4.92-3.714-2.547-1.976-4.015-2.74-4.2-2.184-.157.47-.714 1.284-1.239 1.808-.524.524-.953 1.811-.953 2.86s-.45 4.035-1.002 6.636c-.55 2.601-1.001 7.618-1.001 11.148s.45 8.547 1.001 11.149c.551 2.6 1.002 5.53 1.002 6.51s.454 2.652 1.01 3.717c.555 1.064 1.02 2.695 1.034 3.624s.473 2.28 1.018 3.001c.546.721.992 1.67.992 2.11 0 .784 2.15 5.731 3.357 7.727.338.557 1.317 2.534 2.176 4.392s1.909 3.682 2.333 4.054 1.531 1.892 2.46 3.378c3.395 5.436 15.841 16.8 23.832 21.763 2.313 1.436 8.301 4.25 9.044 4.25.394 0 .717.266.717.59s1.14.778 2.534 1.007c1.393.23 3.409.88 4.478 1.443 1.07.564 5.023 1.657 8.784 2.43 9.317 1.913 29.828 1.559 37.245-.644 6.983-2.074 11.235-3.493 13.513-4.51a83 83 0 0 1 3.04-1.293c.558-.214 1.926-.997 3.041-1.74 1.115-.744 2.56-1.536 3.21-1.76.65-.226 1.182-.678 1.182-1.006 0-.329.41-.597.909-.597s1.459-.608 2.132-1.352c.672-.743 1.474-1.35 1.781-1.35.308 0 1.602-.99 2.876-2.197a817 817 0 0 1 5.756-5.376c1.89-1.749 3.438-3.332 3.438-3.518s1.209-1.643 2.686-3.239 3.035-3.737 3.46-4.759c.426-1.022 1.006-1.858 1.29-1.858.283 0 .693-.532.912-1.182.218-.65.757-1.79 1.198-2.534 2.482-4.182 4.38-8.46 5.994-13.514a913 913 0 0 1 2.408-7.432c.493-1.487 1.257-6.96 1.698-12.162.881-10.391.11-21.374-1.998-28.478l-1.096-3.692-1.491 1.389c-.82.764-1.67 1.389-1.89 1.389-.218 0-1.102.76-1.963 1.69-.861.928-1.835 1.69-2.164 1.692s-1.755 1.066-3.17 2.364c-1.414 1.3-2.858 2.362-3.209 2.362-.35 0-.638.232-.638.515s-2.72 2.488-6.044 4.899l-6.044 4.383-.092 10.811c-.051 5.946-.051 18.629 0 28.183.062 11.432-.159 17.844-.644 18.75-.549 1.026-1.412 1.378-3.378 1.378-4.773 0-4.744.16-4.744-26.517v-23.514l-1.858 1.189c-1.022.653-2.162 1.523-2.534 1.933s-2.636 2.238-5.032 4.063c-2.397 1.826-4.853 3.775-5.459 4.332-4.735 4.357-12.408 9.669-15.647 10.832-2.043.734-2.679.737-3.547.016-1.425-1.182-1.332-2.221.371-4.156.786-.893 1.924-2.384 2.529-3.313 1.585-2.436 1.792-2.694 5.155-6.418 1.677-1.857 3.05-3.584 3.05-3.837s.987-1.545 2.195-2.87 2.5-2.796 2.872-3.267c.7-.888 6.267-7.579 10.597-12.737a304 304 0 0 1 4.898-5.668l2.409-2.703V127.42c.001-33.001-.065-34.92-1.181-34.497-.65.246-1.585.844-2.076 1.33-1.254 1.24-4.615 1.117-5.116-.187-.528-1.378-.516-12.316.016-14.302.224-.837.752-1.524 1.173-1.527 1.065-.009 7.208-5.564 7.196-6.507-.006-.423-1.227-2.85-2.714-5.394s-2.702-4.841-2.702-5.105c0-.263 1.177-3.005 2.616-6.092s2.945-6.43 3.345-7.428c1.846-4.604 4.974-3.498 7.267 2.57.686 1.815 1.64 3.702 2.118 4.193s.87 1.338.87 1.882.5 1.751 1.11 2.683c1.07 1.632 1.008 1.898-1.692 7.347-2.497 5.04-3.02 7.803-1.476 7.803.516 0 2.375 1.485 5.605 4.475 1.776 1.644 1.858 2.006 1.858 8.127 0 7.301-.594 9.073-2.862 8.535-.842-.2-1.834-.723-2.205-1.164-.372-.44-1.208-1-1.858-1.243-1.116-.419-1.183 1.299-1.183 30.245v30.689l6.767-6.893c3.72-3.79 7.982-8.109 9.47-9.595l2.703-2.703-3.099-3.542c-2.112-2.414-3.03-4.027-2.882-5.067.336-2.367 2.655-2.24 5.47.302 3.983 3.596 4.434 3.915 5.53 3.915.572 0 1.041-.409 1.041-.909s.58-1.433 1.29-2.075c.708-.642 2.229-3.135 3.378-5.54 1.826-3.825 2.089-5.093 2.089-10.102 0-5.44.084-5.765 1.675-6.49 1.437-.655 2.084-.49 4.56 1.162 1.588 1.058 3.21 2.3 3.604 2.76 1.538 1.79 4.084 1.778 6.119-.028 4.812-4.273 9.537-7.832 10.4-7.832.368 0 .669-.311.669-.692s.684-.992 1.52-1.359c.836-.366 2.737-1.41 4.223-2.319 1.487-.909 3.535-1.665 4.551-1.682s3.19-.387 4.827-.826c3.461-.925 11.934.246 13.563 1.875.522.522 1.274.95 1.671.95 1.476 0 6.131 4.89 6.131 6.44 0 .855-.228 1.656-.506 1.78-.279.124-1.343 1.237-2.365 2.473-1.397 1.69-1.858 2.976-1.858 5.181 0 3.374-.513 5.071-1.534 5.071-.392 0-2.108-.877-3.813-1.949-6.071-3.818-12.702-4.263-18.978-1.275-3.445 1.64-8.108 6.193-8.108 7.917 0 .631 1.25 2.19 2.778 3.464a565 565 0 0 1 4.011 3.372c.679.58 2.061 1.645 3.072 2.365s3.663 3.057 5.892 5.194 4.352 3.885 4.718 3.885c1.007 0 2.397 2.192 2.017 3.181-.438 1.14-3.563 1.113-6.765-.06-2.979-1.09-16.177-3.137-20.163-3.128-4.812.012-11.469 2.588-14.898 5.766l-1.735 1.609 1.583 3.241c.871 1.784 1.813 3.413 2.093 3.621.88.655 6.662 15.438 7.065 18.063.212 1.377.62 2.808.907 3.18s.842 2.5 1.234 4.73c2.087 11.88 2.68 25.26 1.464 33.03-.356 2.273-.99 6.716-1.411 9.875-.42 3.159-.98 6.047-1.241 6.42-.262.37-1.036 2.347-1.72 4.391s-1.617 4.628-2.075 5.743c-.457 1.115-1.386 3.396-2.063 5.068s-1.632 3.52-2.12 4.107c-.487.587-.886 1.301-.886 1.587 0 .925-4.902 8.495-5.501 8.495-.32 0-.58.316-.58.703 0 .667-2.243 4.13-3.734 5.764-.382.418-1.888 2.326-3.348 4.241s-2.897 3.481-3.192 3.481-.537.456-.537 1.014c0 .557-.228 1.018-.507 1.023-.278.005-1.875 1.254-3.547 2.775-1.672 1.522-4.105 3.568-5.405 4.548-1.301.98-2.517 1.935-2.703 2.123-.995 1.007-4.773 3.382-5.378 3.382-.387 0-.703.229-.703.508 0 .28-1.444 1.26-3.21 2.18-1.765.919-3.361 1.867-3.547 2.108-.186.24-1.858 1.096-3.716 1.902s-4.185 1.91-5.172 2.452c-.986.542-2.279.985-2.872.985-.592 0-1.078.29-1.078.645s-1.14.83-2.533 1.057-3.294.744-4.223 1.15c-6.215 2.718-28.22 4.328-40.997 3" style="fill:#fff" transform="translate(0 24)"/><path d="m399.952 89.405 9.201 27.404h27.604l-23.003 16.68 9.201 27.403-23.003-16.68-21.853 16.68 9.201-27.403-23.003-16.68h27.604z" style="fill:#fff" transform="translate(0 24)"/></svg>