<svg xmlns="http://www.w3.org/2000/svg" width="1200" height="600" viewBox="0 0 5376 2688"><path fill="#fff" d="M0 0h5376v2688H0z"/><path fill="#00356a" d="M0 896h5376v896H0z"/><path stroke="#dc241f" stroke-width="128" d="M0 192h5376M0 448h5376M0 704h5376M0 1984h5376M0 2240h5376M0 2496h5376"/><circle cx="1015" cy="1344" r="336" fill="#ffd100"/><circle cx="1085" cy="1344" r="294" fill="#00356a"/><path fill="#ffd100" d="m1351 1064 24.93 170.8 96.6-143.08-51.66 164.71 149.03-87.01-118.02 126L1624 1281.7l-161 62.3 161 62.3-172.12-13.72 118.02 126-149.03-87.01 51.66 164.71-96.6-143.08L1351 1624l-24.91-170.8-96.53 143.08 51.59-164.71-149.03 87.01 117.95-126L1078 1406.3l161-62.3-161-62.3 172.07 13.72-117.95-126 149.03 87.01-51.66-164.71 96.6 143.08z"/></svg>