<svg xmlns="http://www.w3.org/2000/svg" width="900" height="450" viewBox="0 0 672 336"><path fill="#003573" d="M0 0h672v336H0z"/><path fill="#fff" d="M0 0h672v224H0z"/><path fill="#dc221f" d="M0 0h672v112H0z"/><g fill="#fc0"><path d="m385.4 238-6.072-43.273-25.022 36.214 13.77-41.56-38.646 22.034 30.884-31.612-44.614 3.488 41.88-15.406-41.747-15.747 44.584 3.853-30.612-31.864 38.455 22.348-13.413-41.67 24.71 36.418L386 98l6.072 43.274 25.022-36.214-13.77 41.558 38.645-22.033-30.884 31.613 44.615-3.488-41.882 15.405 41.748 15.748-44.583-3.853 30.612 31.863-38.456-22.347 13.413 41.669-24.71-36.417z"/><path stroke="#ffd100" stroke-width=".75" d="M351.651 101.41s-35.863-14.386-62.805-1.66c-26.81 12.662-46.663 38.33-43.913 71.237 3.545 42.405 32.638 59.79 47.004 66.242 26.987 12.119 59.1-2.692 59.1-2.692s-22.54 17.546-51.1 17.782c-37.85.311-81.989-32.177-83.681-82.742-1.487-43.953 37.946-83.464 76.16-85.562 34.299-1.883 59.235 17.395 59.235 17.395z"/></g></svg>