<svg xmlns="http://www.w3.org/2000/svg" xmlns:xlink="http://www.w3.org/1999/xlink" width="960" height="480"><defs><radialGradient xlink:href="#a" id="n" cx="469.263" cy="619.579" r="3.658" fx="469.263" fy="619.579" gradientTransform="matrix(1 0 0 .93093 .006 42.79)" gradientUnits="userSpaceOnUse"/><radialGradient xlink:href="#a" id="o" cx="469.263" cy="619.579" r="3.658" fx="469.263" fy="619.579" gradientTransform="matrix(1 0 0 .93093 .006 42.79)" gradientUnits="userSpaceOnUse"/><radialGradient xlink:href="#a" id="p" cx="469.263" cy="619.579" r="3.658" fx="469.263" fy="619.579" gradientTransform="matrix(1 0 0 .93093 .006 42.79)" gradientUnits="userSpaceOnUse"/><radialGradient xlink:href="#a" id="q" cx="469.263" cy="619.579" r="3.658" fx="469.263" fy="619.579" gradientTransform="matrix(1 0 0 .93093 .006 42.79)" gradientUnits="userSpaceOnUse"/><radialGradient xlink:href="#a" id="r" cx="469.263" cy="619.579" r="3.658" fx="469.263" fy="619.579" gradientTransform="matrix(1 0 0 .93093 .006 42.79)" gradientUnits="userSpaceOnUse"/><radialGradient xlink:href="#a" id="s" cx="469.263" cy="619.579" r="3.658" fx="469.263" fy="619.579" gradientTransform="matrix(1 0 0 .93093 .006 42.79)" gradientUnits="userSpaceOnUse"/><radialGradient xlink:href="#a" id="t" cx="469.263" cy="619.579" r="3.658" fx="469.263" fy="619.579" gradientTransform="matrix(1 0 0 .93093 .006 42.79)" gradientUnits="userSpaceOnUse"/><radialGradient xlink:href="#a" id="u" cx="469.263" cy="619.579" r="3.658" fx="469.263" fy="619.579" gradientTransform="matrix(1 0 0 .93093 .006 42.79)" gradientUnits="userSpaceOnUse"/><radialGradient xlink:href="#a" id="v" cx="469.263" cy="619.579" r="3.658" fx="469.263" fy="619.579" gradientTransform="matrix(1 0 0 .93093 .006 42.79)" gradientUnits="userSpaceOnUse"/><radialGradient xlink:href="#a" id="w" cx="469.263" cy="619.579" r="3.658" fx="469.263" fy="619.579" gradientTransform="matrix(1 0 0 .93093 .006 42.79)" gradientUnits="userSpaceOnUse"/><radialGradient xlink:href="#a" id="x" cx="469.263" cy="619.579" r="3.658" fx="469.263" fy="619.579" gradientTransform="matrix(1 0 0 .93093 .006 42.79)" gradientUnits="userSpaceOnUse"/><radialGradient xlink:href="#a" id="y" cx="469.263" cy="619.579" r="3.658" fx="469.263" fy="619.579" gradientTransform="matrix(1 0 0 .93093 .006 42.79)" gradientUnits="userSpaceOnUse"/><radialGradient xlink:href="#b" id="z" cx="459.158" cy="678.316" r="4.163" fx="459.158" fy="678.316" gradientTransform="matrix(2.69911 0 0 4.06447 -814.272 -2078.677)" gradientUnits="userSpaceOnUse"/><radialGradient xlink:href="#b" id="A" cx="459.158" cy="678.316" r="4.163" fx="459.158" fy="678.316" gradientTransform="matrix(2.79969 0 0 3.77782 -860.577 -1868.451)" gradientUnits="userSpaceOnUse"/><radialGradient xlink:href="#b" id="B" cx="459.158" cy="678.316" r="4.163" fx="459.158" fy="678.316" gradientTransform="matrix(2.77663 0 0 4.28727 -849.992 -2197.214)" gradientUnits="userSpaceOnUse"/><radialGradient xlink:href="#b" id="C" cx="459.158" cy="678.316" r="4.163" fx="459.158" fy="678.316" gradientTransform="matrix(2.81602 0 0 3.4388 -868.076 -1605.135)" gradientUnits="userSpaceOnUse"/><radialGradient xlink:href="#b" id="D" cx="459.158" cy="678.316" r="4.163" fx="459.158" fy="678.316" gradientTransform="matrix(2.82451 0 0 3.26949 -871.977 -1475.258)" gradientUnits="userSpaceOnUse"/><radialGradient xlink:href="#b" id="E" cx="459.158" cy="678.316" r="4.163" fx="459.158" fy="678.316" gradientTransform="matrix(2.81602 0 0 3.4388 -867.844 -1575.325)" gradientUnits="userSpaceOnUse"/><radialGradient xlink:href="#b" id="F" cx="459.158" cy="678.316" r="4.163" fx="459.158" fy="678.316" gradientTransform="matrix(2.8274 0 0 3.21308 -872.818 -1407.82)" gradientUnits="userSpaceOnUse"/><radialGradient xlink:href="#b" id="G" cx="459.158" cy="678.316" r="4.163" fx="459.158" fy="678.316" gradientTransform="matrix(2.73254 0 0 5.3656 -829.263 -2849.213)" gradientUnits="userSpaceOnUse"/><radialGradient xlink:href="#c" id="J" cx="467.395" cy="562.397" r="24.466" fx="467.395" fy="562.397" gradientTransform="matrix(2.1281 -1.93728 1.12651 1.18751 -1093.307 763.36)" gradientUnits="userSpaceOnUse"/><radialGradient xlink:href="#d" id="K" cx="509.022" cy="551.917" r="6.038" fx="509.022" fy="551.917" gradientTransform="matrix(-1.17786 -.42853 1.2062 -4.39771 459.33 3158.898)" gradientUnits="userSpaceOnUse"/><radialGradient xlink:href="#g" id="L" cx="521.029" cy="552.788" r="6.42" fx="521.029" fy="552.788" gradientTransform="matrix(-1.67325 -.81317 .59126 -.73922 1095.155 1338.974)" gradientUnits="userSpaceOnUse"/><radialGradient xlink:href="#d" id="M" cx="509.022" cy="551.917" r="6.038" fx="509.022" fy="551.917" gradientTransform="matrix(-1.46687 -.35351 1.78452 -4.7486 291.761 3309.084)" gradientUnits="userSpaceOnUse"/><radialGradient xlink:href="#d" id="N" cx="509.022" cy="551.917" r="6.038" fx="509.022" fy="551.917" gradientTransform="matrix(-1.8064 -.22639 2.50716 -4.51101 72.84 3109.427)" gradientUnits="userSpaceOnUse"/><radialGradient xlink:href="#d" id="O" cx="509.022" cy="551.917" r="6.038" fx="509.022" fy="551.917" gradientTransform="matrix(-1.8925 .04994 3.26767 -3.91308 -296.306 2636.372)" gradientUnits="userSpaceOnUse"/><radialGradient xlink:href="#d" id="P" cx="509.022" cy="551.917" r="6.038" fx="509.022" fy="551.917" gradientTransform="matrix(-1.7706 -2.2354 5.54915 3.47775 -1602.506 -275.158)" gradientUnits="userSpaceOnUse"/><radialGradient xlink:href="#d" id="Q" cx="509.022" cy="551.917" r="6.038" fx="509.022" fy="551.917" gradientTransform="matrix(-1.92965 -.39772 4.54058 -1.83314 -972.518 1716.9)" gradientUnits="userSpaceOnUse"/><radialGradient xlink:href="#d" id="R" cx="509.022" cy="551.917" r="6.038" fx="509.022" fy="551.917" gradientTransform="matrix(1.4858 -.83468 -3.79716 -3.10439 1714.345 2667.636)" gradientUnits="userSpaceOnUse"/><radialGradient xlink:href="#h" id="S" cx="343.453" cy="552.667" r="27.658" fx="343.453" fy="552.667" gradientTransform="rotate(.113 134585.82 -304880.5)scale(2.78118 1.46127)" gradientUnits="userSpaceOnUse"/><radialGradient xlink:href="#d" id="T" cx="509.022" cy="551.917" r="6.038" fx="509.022" fy="551.917" gradientTransform="matrix(1.90463 -.17917 -3.67015 -3.73635 1401.645 2668.356)" gradientUnits="userSpaceOnUse"/><radialGradient xlink:href="#d" id="U" cx="509.022" cy="551.917" r="6.038" fx="509.022" fy="551.917" gradientTransform="matrix(1.69773 -.5263 -4.33876 -1.95743 1867.369 1867.026)" gradientUnits="userSpaceOnUse"/><radialGradient xlink:href="#d" id="V" cx="509.022" cy="551.917" r="6.038" fx="509.022" fy="551.917" gradientTransform="matrix(1.92718 -.6006 -5.17727 -1.27831 2209.264 1536.641)" gradientUnits="userSpaceOnUse"/><radialGradient xlink:href="#d" id="W" cx="509.022" cy="551.917" r="6.038" fx="509.022" fy="551.917" gradientTransform="matrix(1.20148 -1.27023 -3.07052 -4.72428 1453.967 3781.707)" gradientUnits="userSpaceOnUse"/><radialGradient xlink:href="#d" id="X" cx="509.022" cy="551.917" r="6.038" fx="509.022" fy="551.917" gradientTransform="matrix(.99554 -1.0824 -2.54423 -4.02567 1264.796 3299.238)" gradientUnits="userSpaceOnUse"/><radialGradient xlink:href="#d" id="Y" cx="509.022" cy="551.917" r="6.038" fx="509.022" fy="551.917" gradientTransform="matrix(1.23634 -1.0777 -3.1596 -4.00821 1476.168 3284.425)" gradientUnits="userSpaceOnUse"/><radialGradient xlink:href="#g" id="Z" cx="520.006" cy="551.042" r="6.42" fx="520.006" fy="551.042" gradientTransform="matrix(2.42504 -1.92633 -1.63013 -.6574 -34.157 1896.102)" gradientUnits="userSpaceOnUse"/><radialGradient xlink:href="#g" id="aa" cx="521.029" cy="552.788" r="6.42" fx="521.029" fy="552.788" gradientTransform="matrix(1.93414 -2.74472 -1.30015 -.9367 44.668 2480.028)" gradientUnits="userSpaceOnUse"/><radialGradient xlink:href="#d" id="ab" cx="509.022" cy="551.917" r="6.038" fx="509.022" fy="551.917" gradientTransform="matrix(1.65225 .3121 -2.22685 -4.2512 744.074 2704.03)" gradientUnits="userSpaceOnUse"/><radialGradient xlink:href="#j" id="ac" cx="504.919" cy="493.934" r="4.162" fx="504.919" fy="493.934" gradientTransform="matrix(1.4276 .06775 -.51491 10.85024 9.443 -4896.4)" gradientUnits="userSpaceOnUse"/><radialGradient xlink:href="#j" id="ad" cx="504.919" cy="493.934" r="4.162" fx="504.919" fy="493.934" gradientTransform="matrix(1.42759 .06774 -.51486 10.85024 8.538 -4877.53)" gradientUnits="userSpaceOnUse"/><radialGradient xlink:href="#j" id="ae" cx="504.919" cy="493.934" r="4.162" fx="504.919" fy="493.934" gradientTransform="matrix(1.13708 .08313 -.41009 13.31468 102.364 -6083.282)" gradientUnits="userSpaceOnUse"/><radialGradient xlink:href="#c" id="af" cx="465.38" cy="569.515" r="24.466" fx="465.38" fy="569.515" gradientTransform="matrix(-3.11632 -.85664 -.67448 1.28428 2335.34 222.514)" gradientUnits="userSpaceOnUse"/><radialGradient xlink:href="#g" id="ag" cx="520.006" cy="551.042" r="6.42" fx="520.006" fy="551.042" gradientTransform="matrix(1.39917 -3.14306 -1.83568 .16388 752.726 2109)" gradientUnits="userSpaceOnUse"/><radialGradient xlink:href="#g" id="ah" cx="520.006" cy="551.042" r="6.42" fx="520.006" fy="551.042" gradientTransform="matrix(2.68792 -1.63307 -1.51412 -.84144 -96.252 1868.427)" gradientUnits="userSpaceOnUse"/><radialGradient xlink:href="#d" id="ai" cx="511.349" cy="552.346" r="6.038" fx="511.349" fy="552.346" gradientTransform="matrix(-.01585 -2.03124 -5.30005 -.56323 3415.352 1894.429)" gradientUnits="userSpaceOnUse"/><radialGradient xlink:href="#d" id="aj" cx="508.094" cy="553.598" r="6.038" fx="508.094" fy="553.598" gradientTransform="matrix(.15806 -1.71914 -5.08147 -.87175 3210.077 1898.808)" gradientUnits="userSpaceOnUse"/><radialGradient xlink:href="#d" id="ak" cx="508.094" cy="553.598" r="6.038" fx="508.094" fy="553.598" gradientTransform="matrix(.89347 -1.5516 -4.0472 -1.60126 2268.955 2212.523)" gradientUnits="userSpaceOnUse"/><radialGradient xlink:href="#g" id="al" cx="522.182" cy="557.583" r="6.42" fx="522.182" fy="557.583" gradientTransform="rotate(228.652 -1696.92 839.898)scale(-5.59023 4.7895)" gradientUnits="userSpaceOnUse"/><radialGradient xlink:href="#g" id="am" cx="521.029" cy="552.788" r="6.42" fx="521.029" fy="552.788" gradientTransform="rotate(-57.308 2575.034 595.52)scale(2.86273 -2.15344)" gradientUnits="userSpaceOnUse"/><radialGradient xlink:href="#d" id="an" cx="509.118" cy="553.303" r="6.038" fx="509.118" fy="553.303" gradientTransform="matrix(1.58285 -.54034 -3.08698 -2.56978 1394.028 2231.503)" gradientUnits="userSpaceOnUse"/><radialGradient xlink:href="#g" id="ao" cx="521.029" cy="552.788" r="6.42" fx="521.029" fy="552.788" gradientTransform="rotate(-54.53 2255.392 858.49)scale(2.86273 -1.37115)" gradientUnits="userSpaceOnUse"/><radialGradient xlink:href="#g" id="ap" cx="520.006" cy="551.042" r="6.42" fx="520.006" fy="551.042" gradientTransform="matrix(-.46281 -3.1109 -1.3628 1.06928 1468.405 1592.999)" gradientUnits="userSpaceOnUse"/><radialGradient xlink:href="#g" id="aq" cx="520.006" cy="551.042" r="6.42" fx="520.006" fy="551.042" gradientTransform="matrix(-.62837 -2.28055 -.92188 .89173 925.82 1291.66)" gradientUnits="userSpaceOnUse"/><radialGradient xlink:href="#g" id="ar" cx="520.006" cy="551.042" r="6.42" fx="520.006" fy="551.042" gradientTransform="matrix(-.23202 -2.1605 -.97627 .71618 745.553 1323.57)" gradientUnits="userSpaceOnUse"/><radialGradient xlink:href="#d" id="as" cx="511.349" cy="552.346" r="6.038" fx="511.349" fy="552.346" gradientTransform="matrix(-1.33563 -.39382 -1.30745 3.87224 1488.447 -1349.775)" gradientUnits="userSpaceOnUse"/><radialGradient xlink:href="#d" id="at" cx="508.094" cy="553.598" r="6.038" fx="508.094" fy="553.598" gradientTransform="matrix(-1.0221 -.64276 -2.11231 2.99946 1774.973 -748.652)" gradientUnits="userSpaceOnUse"/><radialGradient xlink:href="#d" id="au" cx="508.094" cy="553.598" r="6.038" fx="508.094" fy="553.598" gradientTransform="matrix(-.69745 -1.0203 -2.2392 2.03743 1680.98 -32.03)" gradientUnits="userSpaceOnUse"/><radialGradient xlink:href="#g" id="av" cx="520.006" cy="551.042" r="6.42" fx="520.006" fy="551.042" gradientTransform="matrix(-1.33948 -1.74916 -.46866 1.12899 1046.63 878.684)" gradientUnits="userSpaceOnUse"/><radialGradient xlink:href="#g" id="aw" cx="522.182" cy="557.583" r="6.42" fx="522.182" fy="557.583" gradientTransform="matrix(3.55946 1.57181 1.38865 -3.00195 -2543.084 1428.539)" gradientUnits="userSpaceOnUse"/><radialGradient xlink:href="#g" id="ax" cx="521.029" cy="552.788" r="6.42" fx="521.029" fy="552.788" gradientTransform="matrix(-.2251 -1.9558 -1.49445 .17763 1032.988 1494.42)" gradientUnits="userSpaceOnUse"/><radialGradient xlink:href="#d" id="ay" cx="509.118" cy="553.303" r="6.038" fx="509.118" fy="553.303" gradientTransform="matrix(.18701 -1.14037 -2.59116 1.06035 1429.96 563.802)" gradientUnits="userSpaceOnUse"/><radialGradient xlink:href="#g" id="az" cx="521.029" cy="552.788" r="6.42" fx="521.029" fy="552.788" gradientTransform="matrix(.4426 -1.91999 -.93572 -.20318 382.056 1681.06)" gradientUnits="userSpaceOnUse"/><radialGradient xlink:href="#c" id="aA" cx="465.38" cy="569.515" r="24.466" fx="465.38" fy="569.515" gradientTransform="matrix(-2.0655 .9119 .2011 .9769 949.214 -403.806)" gradientUnits="userSpaceOnUse"/><radialGradient xlink:href="#d" id="aB" cx="509.022" cy="551.917" r="6.038" fx="509.022" fy="551.917" gradientTransform="matrix(2.32282 -2.51532 -7.27982 3.91325 3285.493 -379.019)" gradientUnits="userSpaceOnUse"/><radialGradient xlink:href="#d" id="aC" cx="509.022" cy="551.917" r="6.038" fx="509.022" fy="551.917" gradientTransform="matrix(1.92805 -.41833 -4.53681 -1.92813 1980.343 1772.796)" gradientUnits="userSpaceOnUse"/><radialGradient xlink:href="#d" id="aD" cx="509.022" cy="551.917" r="6.038" fx="509.022" fy="551.917" gradientTransform="matrix(2.13475 .04711 -3.68596 -3.691 1411.5 2507.624)" gradientUnits="userSpaceOnUse"/><radialGradient xlink:href="#d" id="aE" cx="509.022" cy="551.917" r="6.038" fx="509.022" fy="551.917" gradientTransform="matrix(1.40869 -.21667 -2.66292 -4.31732 1221.236 2987.15)" gradientUnits="userSpaceOnUse"/><radialGradient xlink:href="#d" id="aF" cx="509.022" cy="551.917" r="6.038" fx="509.022" fy="551.917" gradientTransform="matrix(1.46687 -.35351 -1.78452 -4.7486 714.042 3295.953)" gradientUnits="userSpaceOnUse"/><radialGradient xlink:href="#d" id="aG" cx="509.022" cy="551.917" r="6.038" fx="509.022" fy="551.917" gradientTransform="matrix(1.55036 1.46824 -.2533 -5.21015 -166.582 2625.763)" gradientUnits="userSpaceOnUse"/><radialGradient xlink:href="#d" id="aH" cx="510.977" cy="551.523" r="6.038" fx="510.977" fy="551.523" gradientTransform="matrix(1.18507 .00002 .32344 -4.36942 -293.016 2915.728)" gradientUnits="userSpaceOnUse"/><radialGradient xlink:href="#d" id="aI" cx="509.022" cy="551.917" r="6.038" fx="509.022" fy="551.917" gradientTransform="matrix(1.17786 -.42853 -1.2062 -4.39771 558.852 3152.083)" gradientUnits="userSpaceOnUse"/><radialGradient xlink:href="#c" id="aJ" cx="467.395" cy="562.397" r="24.466" fx="467.395" fy="562.397" gradientTransform="matrix(-2.1281 -1.93728 -1.12651 1.18751 2104.163 758.312)" gradientUnits="userSpaceOnUse"/><radialGradient xlink:href="#c" id="aK" cx="467.395" cy="562.397" r="24.466" fx="467.395" fy="562.397" gradientTransform="rotate(-20.805 .035 2820.995)scale(2.81486 1.60343)" gradientUnits="userSpaceOnUse"/><radialGradient xlink:href="#g" id="aL" cx="520.006" cy="551.042" r="6.42" fx="520.006" fy="551.042" gradientTransform="matrix(-1.52403 -1.80893 1.02447 -.61734 808.617 1829.983)" gradientUnits="userSpaceOnUse"/><radialGradient xlink:href="#d" id="aM" cx="509.022" cy="551.917" r="6.038" fx="509.022" fy="551.917" gradientTransform="matrix(-1.52514 -1.21298 3.89767 -4.51135 -829.263 3645.968)" gradientUnits="userSpaceOnUse"/><radialGradient xlink:href="#g" id="aN" cx="521.029" cy="552.788" r="6.42" fx="521.029" fy="552.788" gradientTransform="matrix(-1.67253 -1.89104 1.1243 -.64536 822.629 1891.328)" gradientUnits="userSpaceOnUse"/><radialGradient xlink:href="#d" id="aO" cx="509.022" cy="551.917" r="6.038" fx="509.022" fy="551.917" gradientTransform="matrix(-1.5316 -1.0235 3.9142 -3.8066 -827.246 3159.547)" gradientUnits="userSpaceOnUse"/><radialGradient xlink:href="#d" id="aP" cx="509.022" cy="551.917" r="6.038" fx="509.022" fy="551.917" gradientTransform="matrix(-1.53748 -.86586 3.92921 -3.22033 -824.952 2755.858)" gradientUnits="userSpaceOnUse"/><radialGradient xlink:href="#d" id="aQ" cx="509.022" cy="551.917" r="6.038" fx="509.022" fy="551.917" gradientTransform="matrix(-1.71759 -.644 4.3895 -2.39516 -979.494 2188.892)" gradientUnits="userSpaceOnUse"/><radialGradient xlink:href="#d" id="aR" cx="509.022" cy="551.917" r="6.038" fx="509.022" fy="551.917" gradientTransform="matrix(-1.91862 -.44417 4.90325 -1.65198 -1152.22 1679.15)" gradientUnits="userSpaceOnUse"/><radialGradient xlink:href="#d" id="aS" cx="509.022" cy="551.917" r="6.038" fx="509.022" fy="551.917" gradientTransform="matrix(-1.51174 -.45564 4.06123 -.96977 -892.317 1314.59)" gradientUnits="userSpaceOnUse"/><radialGradient xlink:href="#d" id="aT" cx="508.266" cy="553.477" r="6.038" fx="508.266" fy="553.477" gradientTransform="matrix(-.17202 -1.18065 4.19513 -.45261 -1710.594 1407.603)" gradientUnits="userSpaceOnUse"/><radialGradient xlink:href="#c" id="aU" cx="465.38" cy="569.515" r="24.466" fx="465.38" fy="569.515" gradientTransform="rotate(-20.805 -75.26 2943.766)scale(2.81486 1.60343)" gradientUnits="userSpaceOnUse"/><radialGradient xlink:href="#d" id="aV" cx="509.118" cy="553.303" r="6.038" fx="509.118" fy="553.303" gradientTransform="matrix(-.8774 -.50573 1.71116 -2.40519 .396 2121.477)" gradientUnits="userSpaceOnUse"/><radialGradient xlink:href="#d" id="aW" cx="509.118" cy="553.303" r="6.038" fx="509.118" fy="553.303" gradientTransform="matrix(-.99308 -.69512 1.93678 -3.3059 -60.678 2715.38)" gradientUnits="userSpaceOnUse"/><radialGradient xlink:href="#d" id="aX" cx="509.118" cy="553.303" r="6.038" fx="509.118" fy="553.303" gradientTransform="matrix(-1.11736 -.70116 2.17915 -3.33465 -126.075 2736.438)" gradientUnits="userSpaceOnUse"/><radialGradient xlink:href="#d" id="aY" cx="508.094" cy="553.598" r="6.038" fx="508.094" fy="553.598" gradientTransform="matrix(-1.54284 -.93786 2.15463 -3.35125 107.614 2870.711)" gradientUnits="userSpaceOnUse"/><radialGradient xlink:href="#d" id="aZ" cx="511.677" cy="552.972" r="6.038" fx="511.677" fy="552.972" gradientTransform="matrix(1.01901 -.92767 2.44598 2.26975 -1352.151 -209.311)" gradientUnits="userSpaceOnUse"/><radialGradient xlink:href="#g" id="ba" cx="518.86" cy="551.109" r="6.42" fx="518.86" fy="551.109" gradientTransform="matrix(-3.4551 -3.72256 3.55091 -3.66159 355.075 4506.585)" gradientUnits="userSpaceOnUse"/><radialGradient xlink:href="#d" id="bb" cx="508.094" cy="553.598" r="6.038" fx="508.094" fy="553.598" gradientTransform="matrix(-.89347 -1.5516 4.0472 -1.60126 -1265.414 2220.86)" gradientUnits="userSpaceOnUse"/><radialGradient xlink:href="#d" id="bc" cx="508.094" cy="553.598" r="6.038" fx="508.094" fy="553.598" gradientTransform="matrix(-.40158 -1.23032 4.36342 -1.2697 -1688.664 1878.955)" gradientUnits="userSpaceOnUse"/><radialGradient xlink:href="#g" id="bd" cx="521.029" cy="552.788" r="6.42" fx="521.029" fy="552.788" gradientTransform="matrix(-1.34647 -2.1303 1.57819 -1.02845 347.334 2229.719)" gradientUnits="userSpaceOnUse"/><radialGradient xlink:href="#g" id="be" cx="521.029" cy="552.788" r="6.42" fx="521.029" fy="552.788" gradientTransform="rotate(237.308 827.163 1134.531)scale(2.86273 2.15344)" gradientUnits="userSpaceOnUse"/><radialGradient xlink:href="#g" id="bf" cx="521.029" cy="552.788" r="6.42" fx="521.029" fy="552.788" gradientTransform="rotate(237.308 825.03 1133.772)scale(2.86273 2.15344)" gradientUnits="userSpaceOnUse"/><radialGradient xlink:href="#g" id="bg" cx="521.029" cy="552.788" r="6.42" fx="521.029" fy="552.788" gradientTransform="rotate(234.53 941.723 903.898)scale(2.86273 1.37115)" gradientUnits="userSpaceOnUse"/><radialGradient xlink:href="#d" id="bh" cx="508.266" cy="553.477" r="6.038" fx="508.266" fy="553.477" gradientTransform="matrix(.71506 -1.44112 4.41554 -.30572 -2284.721 1467.485)" gradientUnits="userSpaceOnUse"/><radialGradient xlink:href="#d" id="bi" cx="508.266" cy="553.477" r="6.038" fx="508.266" fy="553.477" gradientTransform="matrix(.73959 -1.39503 4.56702 -.29594 -2381.221 1442.525)" gradientUnits="userSpaceOnUse"/><linearGradient id="h"><stop offset="0" style="stop-color:#095d17;stop-opacity:1"/><stop offset="1" style="stop-color:#ff0;stop-opacity:1"/></linearGradient><linearGradient id="j"><stop offset="0" style="stop-color:green;stop-opacity:1"/><stop offset="1" style="stop-color:#ff0;stop-opacity:1"/></linearGradient><linearGradient id="d"><stop offset="0" style="stop-color:#005718;stop-opacity:1"/><stop offset="1" style="stop-color:#ff0;stop-opacity:1"/></linearGradient><linearGradient id="g"><stop offset="0" style="stop-color:#165016;stop-opacity:1"/><stop offset="1" style="stop-color:#ff0;stop-opacity:1"/></linearGradient><linearGradient id="c"><stop offset="0" style="stop-color:green;stop-opacity:1"/><stop offset="1" style="stop-color:#ff0;stop-opacity:1"/></linearGradient><linearGradient id="m"><stop offset="0" style="stop-color:green;stop-opacity:1"/><stop offset="1" style="stop-color:#ff0;stop-opacity:1"/></linearGradient><linearGradient id="a"><stop offset="0" style="stop-color:#b12019;stop-opacity:1"/><stop offset="1" style="stop-color:#500;stop-opacity:1"/></linearGradient><linearGradient id="k"><stop offset="0" style="stop-color:green;stop-opacity:1"/><stop offset="1" style="stop-color:#ff0;stop-opacity:1"/></linearGradient><linearGradient id="l"><stop offset="0" style="stop-color:green;stop-opacity:1"/><stop offset="1" style="stop-color:#ff0;stop-opacity:1"/></linearGradient><linearGradient id="b"><stop offset="0" style="stop-color:#b5211a;stop-opacity:1"/><stop offset="1" style="stop-color:#2b0000;stop-opacity:1"/></linearGradient><linearGradient xlink:href="#k" id="H" x1="480.986" x2="480.986" y1="983.095" y2="908.821" gradientUnits="userSpaceOnUse"/><linearGradient xlink:href="#l" id="I" x1="482.348" x2="480.938" y1="988.133" y2="959.333" gradientUnits="userSpaceOnUse"/><linearGradient xlink:href="#m" id="bj" x1="434.379" x2="430.31" y1="584.934" y2="584.066" gradientTransform="matrix(1.11292 0 0 1.01634 -64.773 -26.748)" gradientUnits="userSpaceOnUse"/><linearGradient xlink:href="#m" id="bk" x1="437.285" x2="429.633" y1="589.824" y2="587.795" gradientTransform="matrix(1.11292 0 0 1.01634 -64.268 -20.18)" gradientUnits="userSpaceOnUse"/><linearGradient xlink:href="#m" id="bl" x1="437.512" x2="431.471" y1="590.073" y2="588.541" gradientTransform="matrix(1.11292 0 0 1.01634 -65.026 -11.338)" gradientUnits="userSpaceOnUse"/></defs><path d="M0 0h320v480H0z" style="fill:#3771c8;fill-opacity:1;fill-rule:nonzero;stroke:none;stroke-width:1;stroke-miterlimit:4;stroke-dasharray:none;stroke-opacity:1"/><path d="M640 0h320v480H640z" style="fill:#ff0;fill-opacity:1;fill-rule:nonzero;stroke:none;stroke-width:1;stroke-miterlimit:4;stroke-dasharray:none;stroke-opacity:1"/><path d="M320 0h320v480H320z" style="fill:#fff;fill-opacity:1;fill-rule:nonzero;stroke:none;stroke-width:1;stroke-miterlimit:4;stroke-dasharray:none;stroke-opacity:1"/><path d="m441.139 615.665.3-8.294s6.62 3.267 11.133 7.54l3.336 3.757 3.585 5.793c0 .443-6.222-7.541-11.337-10.82-4.23-2.711-7.017 2.024-7.017 2.024z" style="fill:#fff;fill-rule:evenodd;stroke:#000;stroke-width:1.08850861px;stroke-linecap:butt;stroke-linejoin:miter;stroke-opacity:1" transform="matrix(1.18084 0 0 1.02859 -44.497 -401.96)"/><path d="M472.421 619.579a3.158 2.905 0 1 1-6.316 0 3.158 2.905 0 1 1 6.316 0z" style="fill:url(#n);fill-opacity:1;fill-rule:evenodd;stroke:#000;stroke-width:1;stroke-miterlimit:4;stroke-dasharray:none;stroke-opacity:1" transform="matrix(.1108 1.3952 -1.37853 .58565 1294.762 -774.441)"/><path d="M472.421 619.579a3.158 2.905 0 1 1-6.316 0 3.158 2.905 0 1 1 6.316 0z" style="fill:url(#o);fill-opacity:1;fill-rule:evenodd;stroke:#000;stroke-width:1;stroke-miterlimit:4;stroke-dasharray:none;stroke-opacity:1" transform="matrix(1.60062 -.10945 .6851 1.1953 -675.472 -449.734)"/><path d="M472.421 619.579a3.158 2.905 0 1 1-6.316 0 3.158 2.905 0 1 1 6.316 0z" style="fill:url(#p);fill-opacity:1;fill-rule:evenodd;stroke:#000;stroke-width:1;stroke-miterlimit:4;stroke-dasharray:none;stroke-opacity:1" transform="matrix(1.15644 .97013 -.57157 1.23976 307.69 -977.648)"/><path d="M472.421 619.579a3.158 2.905 0 1 1-6.316 0 3.158 2.905 0 1 1 6.316 0z" style="fill:url(#q);fill-opacity:1;fill-rule:evenodd;stroke:#000;stroke-width:1;stroke-miterlimit:4;stroke-dasharray:none;stroke-opacity:1" transform="matrix(1.15644 .97013 -.57157 1.23976 310.971 -976.868)"/><path d="M472.421 619.579a3.158 2.905 0 1 1-6.316 0 3.158 2.905 0 1 1 6.316 0z" style="fill:url(#r);fill-opacity:1;fill-rule:evenodd;stroke:#000;stroke-width:1;stroke-miterlimit:4;stroke-dasharray:none;stroke-opacity:1" transform="matrix(1.15644 .97013 -.57157 1.23976 318.429 -978.167)"/><path d="M472.421 619.579a3.158 2.905 0 1 1-6.316 0 3.158 2.905 0 1 1 6.316 0z" style="fill:url(#s);fill-opacity:1;fill-rule:evenodd;stroke:#000;stroke-width:1;stroke-miterlimit:4;stroke-dasharray:none;stroke-opacity:1" transform="matrix(.86006 1.18095 -.89213 1.08674 656.713 -975.79)"/><path d="M472.421 619.579a3.158 2.905 0 1 1-6.316 0 3.158 2.905 0 1 1 6.316 0z" style="fill:url(#t);fill-opacity:1;fill-rule:evenodd;stroke:#000;stroke-width:1;stroke-miterlimit:4;stroke-dasharray:none;stroke-opacity:1" transform="matrix(.27005 1.3786 -1.30458 .70253 1173.618 -832.833)"/><path d="M472.421 619.579a3.158 2.905 0 1 1-6.316 0 3.158 2.905 0 1 1 6.316 0z" style="fill:url(#u);fill-opacity:1;fill-rule:evenodd;stroke:#000;stroke-width:1;stroke-miterlimit:4;stroke-dasharray:none;stroke-opacity:1" transform="matrix(1.15644 .97013 -.57157 1.23976 308.286 -961.017)"/><path d="M472.421 619.579a3.158 2.905 0 1 1-6.316 0 3.158 2.905 0 1 1 6.316 0z" style="fill:url(#v);fill-opacity:1;fill-rule:evenodd;stroke:#000;stroke-width:1;stroke-miterlimit:4;stroke-dasharray:none;stroke-opacity:1" transform="matrix(-.20588 1.31618 -1.3994 .31159 1456.003 -554.823)"/><path d="M472.421 619.579a3.158 2.905 0 1 1-6.316 0 3.158 2.905 0 1 1 6.316 0z" style="fill:url(#w);fill-opacity:1;fill-rule:evenodd;stroke:#000;stroke-width:1;stroke-miterlimit:4;stroke-dasharray:none;stroke-opacity:1" transform="matrix(.43109 1.27416 -1.1301 .78354 996.512 -830.116)"/><path d="M472.421 619.579a3.158 2.905 0 1 1-6.316 0 3.158 2.905 0 1 1 6.316 0z" style="fill:url(#x);fill-opacity:1;fill-rule:evenodd;stroke:#000;stroke-width:1;stroke-miterlimit:4;stroke-dasharray:none;stroke-opacity:1" transform="matrix(1.15644 .97013 -.57157 1.23976 316.64 -965.175)"/><path d="M472.421 619.579a3.158 2.905 0 1 1-6.316 0 3.158 2.905 0 1 1 6.316 0z" style="fill:url(#y);fill-opacity:1;fill-rule:evenodd;stroke:#000;stroke-width:1;stroke-miterlimit:4;stroke-dasharray:none;stroke-opacity:1" transform="matrix(1.15644 .97013 -.57157 1.23976 314.253 -960.757)"/><path d="m421.41 669.494 7.285.294v17.35l-7.285-.294z" style="fill:url(#z);fill-opacity:1;fill-rule:evenodd;stroke:#000;stroke-width:1.04060411px;stroke-linecap:butt;stroke-linejoin:miter;stroke-opacity:1" transform="translate(37.29 -463.913)scale(1.02859)"/><path d="m421.148 685.906 7.557.273v16.126l-7.557-.273z" style="fill:url(#A);fill-opacity:1;fill-rule:evenodd;stroke:#000;stroke-width:1.02175915px;stroke-linecap:butt;stroke-linejoin:miter;stroke-opacity:1" transform="translate(37.29 -463.913)scale(1.02859)"/><path d="m421.179 701.6 7.495.31v18.3l-7.495-.31z" style="fill:url(#B);fill-opacity:1;fill-rule:evenodd;stroke:#000;stroke-width:1.0839833px;stroke-linecap:butt;stroke-linejoin:miter;stroke-opacity:1" transform="translate(37.29 -463.913)scale(1.02859)"/><path d="m421.126 719.989 7.601.249v14.678l-7.601-.248z" style="fill:url(#C);fill-opacity:1;fill-rule:evenodd;stroke:#000;stroke-width:.97767365px;stroke-linecap:butt;stroke-linejoin:miter;stroke-opacity:1" transform="translate(37.29 -463.913)scale(1.02859)"/><path d="m421.114 735.388 7.624.236v13.957l-7.624-.237z" style="fill:url(#D);fill-opacity:1;fill-rule:evenodd;stroke:#000;stroke-width:.95473909px;stroke-linecap:butt;stroke-linejoin:miter;stroke-opacity:1" transform="translate(37.29 -463.913)scale(1.02859)"/><path d="m421.357 749.8 7.602.248v14.679l-7.602-.249z" style="fill:url(#E);fill-opacity:1;fill-rule:evenodd;stroke:#000;stroke-width:.97767365px;stroke-linecap:butt;stroke-linejoin:miter;stroke-opacity:1" transform="translate(37.29 -463.913)scale(1.02859)"/><path d="m421.595 764.69 7.632.232v13.715l-7.632-.232z" style="fill:url(#F);fill-opacity:1;fill-rule:evenodd;stroke:#000;stroke-width:.94695121px;stroke-linecap:butt;stroke-linejoin:miter;stroke-opacity:1" transform="translate(37.29 -463.913)scale(1.02859)"/><path d="m421.723 778.712 7.376.388v22.904l-7.376-.388z" style="fill:url(#G);fill-opacity:1;fill-rule:evenodd;stroke:#000;stroke-width:1.20300031px;stroke-linecap:butt;stroke-linejoin:miter;stroke-opacity:1" transform="translate(37.29 -463.913)scale(1.02859)"/><path d="m407.764 1001.24 5.36-9.647h2.857l3.573-3.93 5.717.714 1.786-5.716 4.287 3.573 5.002-8.932 5.36 5.716 2.857-7.86 3.93 3.93 4.645-5.36 5.36 5.36 4.644-4.645 5.002 6.789 4.287-4.288 4.287 4.288 5.717-4.645 4.644 5.002 5.36-7.503 2.5 5.002 5.717-3.573 4.287 3.93 4.287-4.644 2.501 3.215 2.858-2.5 2.144 3.93 6.788-2.502.358 4.645 3.93-1.786.714 4.287 3.216-2.858 2.143 3.215 3.93-1.786 2.501 5.359 2.858-2.144 2.144 2.858s3.215-1.429 4.287 2.501 3.93 3.216 3.93 3.216l-11.075.357-8.932-2.858-15.72-1.072-13.22 3.216-20.364-5.36-11.076-.714-9.646 5.002-10.36-1.787-17.176 2.902-16.052 7.817-8.217-1.787s-7.503 0-30.01 4.288l-2.502-7.503h6.074l.357-4.645 5.36 3.216 1.786-6.431 4.287 3.215.714-5.359 5.002 1.786 1.43-4.644 6.073 1.429 3.216-3.93 4.644 2.858.357-7.503 6.431 3.216 1.072-10.004 4.287 3.216 1.43-4.288 2.5 3.216 6.431-10.718 7.86 7.145 3.573-3.215 3.216 2.858 2.143-3.216 4.288 3.573 2.143-2.5 7.146 4.286 1.072-2.5 8.574 5.359 7.146-12.148 6.073 6.074 9.29-5.002 3.93 4.645 7.145-4.288 3.216 6.431 9.289-7.145 3.572 7.145 4.288-1.429 1.429 6.074 6.074-2.858 2.5 6.788 6.789-.715.714 5.36 5.36-1.072 1.071 6.788 6.788-4.645 1.787 6.074 5.359.715.714 4.644 5.717-1.429 4.287 8.575-32.512-7.86.715.714" style="fill:none;fill-rule:evenodd;stroke:#000;stroke-width:1px;stroke-linecap:butt;stroke-linejoin:miter;stroke-opacity:1" transform="translate(-14.94 -642.693)scale(1.02859)"/><path d="M381.972 1003.305c-.236-.634-1.888-5.596-1.888-5.67 0-.043 1.29-.077 2.868-.077h2.869l.163-1.937c.09-1.066.214-1.987.274-2.048s1.066.467 2.233 1.172 2.296 1.348 2.509 1.43c.31.119.551-.448 1.208-2.834.452-1.64.857-3.023.9-3.07.043-.05 1.003.616 2.134 1.476 1.13.861 2.112 1.51 2.18 1.442s.277-1.225.465-2.571.407-2.512.485-2.59c.079-.079 1.176.226 2.438.678 1.262.451 2.327.78 2.366.731s.377-1.084.75-2.3c.374-1.216.78-2.21.902-2.21s1.444.288 2.937.641c1.494.353 2.8.552 2.903.442s.809-.962 1.567-1.895l1.38-1.695 2.444 1.506c1.345.828 2.486 1.506 2.537 1.506s.175-1.7.275-3.776l.182-3.775 2.996 1.501c1.648.826 3.093 1.502 3.21 1.502.119 0 .428-2.103.688-4.673.26-2.571.543-4.674.629-4.674s.992.625 2.013 1.39c1.022.764 1.88 1.389 1.906 1.389s.367-.874.756-1.942l.709-1.942.651.855c.359.47.885 1.13 1.17 1.467l.519.612 3.118-5.217c1.716-2.87 3.208-5.272 3.316-5.34.166-.102 1.718 1.243 7.105 6.155l.682.62 1.692-1.55c.93-.852 1.76-1.55 1.845-1.549s.873.645 1.755 1.43c.897.801 1.675 1.319 1.768 1.178l1.014-1.557c.466-.717.92-1.303 1.01-1.302.09.002 1.064.762 2.164 1.69l2.001 1.689 1.111-1.294 1.111-1.293 3.533 2.13c1.943 1.17 3.59 2.128 3.66 2.128s.354-.511.63-1.137c.277-.625.548-1.136.601-1.136.054 0 1.91 1.136 4.124 2.526s4.126 2.524 4.248 2.522 1.671-2.476 3.442-5.495c1.77-3.02 3.33-5.66 3.466-5.87.2-.305.803.175 3.138 2.501l2.891 2.88 4.614-2.473 4.613-2.473.777.862c.427.475 1.345 1.511 2.04 2.304l1.263 1.441 3.284-2.007c1.806-1.103 3.4-2.01 3.541-2.015s.968 1.417 1.836 3.16l1.578 3.168 2.08-1.614c1.144-.888 3.214-2.49 4.6-3.558l2.52-1.944 1.713 3.421c.943 1.882 1.807 3.421 1.92 3.421.115 0 1.043-.284 2.064-.631s1.886-.632 1.92-.632.374 1.336.754 2.969.717 3.002.748 3.044c.03.041 1.397-.557 3.037-1.33 1.64-.774 3.058-1.32 3.15-1.213.094.106.66 1.558 1.258 3.225a205 205 0 0 0 1.12 3.084c.019.028 1.5-.11 3.293-.31 1.793-.198 3.3-.322 3.347-.274s.214 1.118.369 2.378.368 2.43.473 2.6c.147.238.766.193 2.722-.197l2.533-.505.127.528c.07.29.321 1.835.559 3.433s.466 2.945.506 2.995c.04.049 1.585-.941 3.433-2.2 2.26-1.541 3.413-2.19 3.524-1.985.091.168.476 1.408.856 2.756.771 2.735.534 2.541 3.535 2.879 2.563.288 2.533.257 2.888 2.86.173 1.262.39 2.292.481 2.29.092-.004 1.428-.328 2.97-.721l2.801-.715 1.696 3.402c.932 1.871 1.66 3.426 1.619 3.456-.188.133-28.128-6.765-28.203-6.963-.046-.122-.39-.223-.765-.223-1.103 0-1.771-.68-2.81-2.866-1.112-2.337-1.844-2.94-3.58-2.95-1.039-.005-1.15-.08-2.089-1.389-.545-.761-1.097-1.384-1.227-1.384s-.65.322-1.156.715c-.506.394-1.063.799-1.237.9-.221.129-.663-.56-1.462-2.282-.63-1.357-1.182-2.505-1.229-2.55-.046-.047-.969.319-2.05.812-1.082.492-1.989.866-2.016.83s-.53-.786-1.12-1.665c-1.209-1.802-.954-1.814-3.074.152l-.91.844-.309-1.91c-.18-1.122-.43-1.91-.605-1.909-.164 0-1.018.341-1.9.758-.88.417-1.648.758-1.705.758s-.112-.54-.122-1.2-.095-1.674-.19-2.253l-.17-1.053-3.405 1.255c-3.861 1.423-3.506 1.492-4.73-.918-1.038-2.046-.98-2.031-2.567-.625l-1.424 1.262-.632-.815c-.347-.448-.94-1.16-1.319-1.582l-.687-.766-2.05 2.21c-1.127 1.216-2.147 2.21-2.266 2.21s-1.075-.795-2.124-1.767c-1.049-.973-1.967-1.769-2.04-1.769s-1.31.739-2.75 1.642c-1.438.903-2.662 1.642-2.72 1.642s-.666-1.137-1.35-2.526c-.683-1.39-1.304-2.524-1.379-2.521-.075.002-1.33 1.702-2.789 3.777l-2.652 3.773-2.293-2.44-2.293-2.44-2.865 2.342-2.865 2.341-2.174-2.164-2.174-2.164-2.01 2.022c-1.105 1.112-2.077 2.021-2.16 2.021-.118 0-4-5.145-4.843-6.42-.111-.167-1.095.634-2.531 2.062l-2.35 2.337L456 975.58c-1.384-1.39-2.65-2.526-2.811-2.526s-1.288 1.147-2.502 2.55l-2.208 2.55-2.078-2.067-2.077-2.067-1.083 2.99c-.596 1.645-1.247 3.389-1.447 3.875l-.363.884-2.589-2.75-2.589-2.752-.511.857c-.282.47-1.398 2.448-2.48 4.393s-2.005 3.58-2.05 3.634-1.057-.726-2.251-1.732c-1.195-1.005-2.2-1.788-2.235-1.739-.034.05-.442 1.34-.905 2.868-.463 1.529-.916 2.864-1.006 2.967s-1.352.028-2.805-.167l-2.642-.354-1.853 1.998-1.853 1.999h-2.933l-2.429 4.392-2.429 4.392-1.451.166c-3.961.456-14.514 2.027-18.826 2.804-5.514.993-5.463.988-5.622.561z" style="fill:url(#H);fill-opacity:1;fill-rule:evenodd;stroke:#000;stroke-width:.25263157;stroke-miterlimit:4;stroke-dasharray:none;stroke-opacity:1" transform="translate(-14.94 -642.693)scale(1.02859)"/><path d="M416.337 1000.548c-1.806-.414-4.092-.83-5.079-.924l-1.795-.171 2.007-3.6 2.006-3.6 1.43-.018 1.43-.019 1.73-1.954 1.73-1.955 2.439.322c3.751.494 3.377.672 4.208-1.997.4-1.286.813-2.44.918-2.564s.907.381 1.783 1.124c.876.742 1.77 1.496 1.988 1.675.345.285.706-.23 2.862-4.084l2.466-4.41 2.191 2.302c1.205 1.265 2.34 2.512 2.521 2.77.696.992.723.95 2.574-4.161l1.083-2.99 1.856 1.843c1.136 1.13 1.942 1.75 2.077 1.601.122-.134 1.052-1.21 2.067-2.39a960 960 0 0 1 2.06-2.392c.129-.147 1.268.806 2.862 2.395l2.649 2.64 2.337-2.317 2.337-2.316 2.497 3.419 2.498 3.418 2.181-2.172 2.182-2.171 2.01 2.021c1.105 1.112 2.113 2.022 2.24 2.022.126 0 1.323-.89 2.658-1.976 1.336-1.086 2.581-2.066 2.768-2.177.237-.14 1.048.551 2.687 2.292 1.29 1.37 2.399 2.436 2.461 2.366.063-.07 1.234-1.703 2.601-3.63l2.487-3.503 1.12 2.24c.617 1.232 1.16 2.284 1.21 2.337.048.053 1.399-.722 3.001-1.722l2.914-1.82 2.038 1.85c1.12 1.016 2.172 1.848 2.337 1.848.164 0 1.15-.91 2.191-2.021 1.041-1.112 1.95-2.047 2.022-2.078.07-.032.637.622 1.26 1.452.621.83 1.198 1.51 1.281 1.51.084 0 .427-.295.764-.656a10.5 10.5 0 0 1 1.285-1.138l.672-.482.944 1.707c.52.938.98 1.748 1.022 1.8s1.513-.431 3.268-1.073c1.754-.643 3.22-1.168 3.257-1.168.038 0 .138.98.222 2.18.085 1.198.205 2.23.267 2.291.062.062.968-.282 2.013-.765l1.9-.877.284 1.806c.464 2.947.398 2.914 2.317 1.181l1.68-1.517.846 1.302 1.01 1.55c.097.147.849-.074 1.86-.547.933-.437 1.825-.793 1.984-.792.158.001.855 1.195 1.55 2.653l1.263 2.652 1.312-1.011c.72-.557 1.422-1.012 1.557-1.012s.658.561 1.16 1.246c.85 1.158.976 1.236 1.777 1.106 1.548-.251 2.055.045 2.787 1.628.37.798.787 1.667.928 1.93.209.392.181.451-.148.324-.463-.177-.535.103-.131.507.196.196-.715.307-3.221.39l-3.494.118-4.674-1.461-4.674-1.462-7.831-.506-7.832-.507-6.533 1.599-6.534 1.599-10.014-2.649-10.014-2.649-5.81-.374-5.81-.374-4.663 2.42c-2.564 1.331-4.837 2.423-5.052 2.426s-2.58-.365-5.255-.819l-4.864-.824-8.652 1.462-8.652 1.461-8.04 3.905c-4.422 2.147-8.06 3.894-8.084 3.881-.024-.012-1.522-.362-3.328-.776z" style="fill:url(#I);fill-opacity:1;fill-rule:evenodd;stroke:#000;stroke-width:.25263157;stroke-miterlimit:4;stroke-dasharray:none;stroke-opacity:1" transform="translate(-14.94 -642.693)scale(1.02859)"/><path d="M561.738 508.282s-3.966-4.3-13.465-3.537c-4.395.352-.536-.924-3.738.393-6.996 2.877-6.002 2.485-9.269 4.59-6.021 3.881-7.156 4.333-10.564 7.834-4.469 4.59-4.468 4.98-6.994 9.67-2.411 4.477-3.846 14.091-3.846 14.091l-3.176 20.922 3.873-11.294c.925-6.41 2.814-17.583 5.356-22.544 3.38-6.594 6.798-9.78 11.253-13.518 3.611-3.028 10.15-7.46 14.691-8.328 3.53-.674.5-.682 6.684-.45 4.628.174 9.503 2.496 9.195 2.17z" style="fill:url(#J);fill-opacity:1;fill-rule:evenodd;stroke:#000;stroke-width:1.02149224px;stroke-linecap:butt;stroke-linejoin:miter;stroke-opacity:1" transform="translate(-51.59 -401.837)scale(1.02859)"/><path d="M521.243 527.706c2.9-.895 4.981-8.352 4.981-8.352l2.324-6.045-2.432-12.03s-3.69 6.52-4.513 10.893c-.632 3.361-.178 13.048-.36 15.534z" style="fill:url(#K);fill-opacity:1;fill-rule:evenodd;stroke:#000;stroke-width:.74463081px;stroke-linecap:butt;stroke-linejoin:miter;stroke-opacity:1" transform="translate(-51.59 -401.837)scale(1.02859)"/><path d="M541.857 506.714s4.665 1.204 7.893 2.753c3.229 1.548 4.572 3.841 4.572 3.841s.028-6.727-2.329-8.13c-.957-.569-5.125.112-5.125.112z" style="fill:url(#L);fill-opacity:1;fill-rule:evenodd;stroke:#000;stroke-width:.66151589px;stroke-linecap:butt;stroke-linejoin:miter;stroke-opacity:1" transform="translate(-51.59 -401.837)scale(1.02859)"/><path d="M523.785 523.577c3.726-1.19 6.797-9.245 6.797-9.245l3.296-6.584-2.378-12.506s-5.055 7.2-6.352 11.89c-.997 3.605-.987 13.803-1.363 16.445z" style="fill:url(#M);fill-opacity:1;fill-rule:evenodd;stroke:#000;stroke-width:.85986632px;stroke-linecap:butt;stroke-linejoin:miter;stroke-opacity:1" transform="translate(-51.59 -401.837)scale(1.02859)"/><path d="M528.431 519.024c4.713-1.355 9.021-9.01 9.021-9.01l5.428-4.75-3.143-12.957s-6.729 7-8.625 11.424c-1.458 3.4-2.055 12.825-2.681 15.293z" style="fill:url(#N);fill-opacity:1;fill-rule:evenodd;stroke:#000;stroke-width:.92106777px;stroke-linecap:butt;stroke-linejoin:miter;stroke-opacity:1" transform="translate(-51.59 -401.837)scale(1.02859)"/><path d="M532.71 514.784c5.763-4.387 10.518-6.287 10.518-6.287l2.49-3.744 2.574-12.693s-8.091 6.434-10.697 10.2c-2.003 2.894-3.89 10.478-4.885 12.524z" style="fill:url(#O);fill-opacity:1;fill-rule:evenodd;stroke:#000;stroke-width:.83958399px;stroke-linecap:butt;stroke-linejoin:miter;stroke-opacity:1" transform="translate(-51.59 -401.837)scale(1.02859)"/><path d="M545.568 500.844c5.454 3.894 5.525 4.017 5.525 4.017l1.844 1.934 12.102 3.079s-2.64-5.402-6.155-6.906c-2.702-1.157-10.933-1.327-13.316-2.124z" style="fill:url(#P);fill-opacity:1;fill-rule:evenodd;stroke:#000;stroke-width:.61354584px;stroke-linecap:butt;stroke-linejoin:miter;stroke-opacity:1" transform="translate(-51.59 -401.837)scale(1.02859)"/><path d="M537.063 511.382c8.107-3.185 9.932-4.976 9.932-4.976l6.006-.15 5.926-9.15s-10.215 2.396-14.04 4.282c-2.94 1.45-6.172 8.873-7.824 9.994z" style="fill:url(#Q);fill-opacity:1;fill-rule:evenodd;stroke:#000;stroke-width:.72115386px;stroke-linecap:butt;stroke-linejoin:miter;stroke-opacity:1" transform="translate(-51.59 -401.837)scale(1.02859)"/><path d="M385.352 544.512c-4.576.459-8.74-9.092-8.74-9.092l-6.418-3.3-1.931-12.552s9.294 5.257 10.893 8.075c2.268 4 4.766 14.909 6.196 16.869z" style="fill:url(#R);fill-opacity:1;fill-rule:evenodd;stroke:#000;stroke-width:.8703047px;stroke-linecap:butt;stroke-linejoin:miter;stroke-opacity:1" transform="translate(79.126 -394.272)scale(1.02859)"/><path d="m332.968 533.305 9.6-5.81 7.327-2.527 6.063 1.264L361.01 528l5.557 3.537 5.558 4.042 5.053 3.032 4.547 4.294 3.79 5.306 1.768-2.021-6.316-6.569c-5.695-4.057-9.684-9.221-16.673-12.631-4.14-2.387-7.634-3.479-11.116-4.548l-7.579 1.263c-4.963 2.021-8.004 4.042-9.6 6.063z" style="fill:url(#S);fill-opacity:1;fill-rule:evenodd;stroke:#000;stroke-width:1px;stroke-linecap:butt;stroke-linejoin:miter;stroke-opacity:1" transform="translate(79.126 -394.272)scale(1.02859)"/><path d="M357.977 527.044c-6.222-3.931-13.329-1.606-13.329-1.606l-.729-7.405-3.849-13.102s8.763 5.81 11.755 9.472c2.3 2.814 4.95 10.6 6.152 12.64z" style="fill:url(#T);fill-opacity:1;fill-rule:evenodd;stroke:#000;stroke-width:.869856px;stroke-linecap:butt;stroke-linejoin:miter;stroke-opacity:1" transform="translate(79.126 -394.272)scale(1.02859)"/><path d="M352.2 525.538c-6.727-1.569-13.06-.159-13.06-.159l-5.8-4.821-4.05-7.967s10.127 1.459 13.825 3.503c2.841 1.571 7.45 8.208 9.085 9.444z" style="fill:url(#U);fill-opacity:1;fill-rule:evenodd;stroke:#000;stroke-width:.73872006px;stroke-linecap:butt;stroke-linejoin:miter;stroke-opacity:1" transform="translate(79.126 -394.272)scale(1.02859)"/><path d="M347.98 525.538c-5.904 1.924-9.623 1.378-9.623 1.378l-4.11 4.47-10.925-10.399s10.73.01 15.253 1.331c3.477 1.015 6.485 2.114 9.404 3.22z" style="fill:url(#V);fill-opacity:1;fill-rule:evenodd;stroke:#000;stroke-width:.74309415px;stroke-linecap:butt;stroke-linejoin:miter;stroke-opacity:1" transform="translate(79.126 -394.272)scale(1.02859)"/><path d="M376.201 537.346c-3.7-.89-5.963-4.645-5.963-4.645l-3.001-3.432-1.76-16.506s6.559 6.01 9.373 10.747c2.41 4.057 1.19 11.382 1.351 13.836z" style="fill:url(#W);fill-opacity:1;fill-rule:evenodd;stroke:#000;stroke-width:.96544492px;stroke-linecap:butt;stroke-linejoin:miter;stroke-opacity:1" transform="translate(79.126 -394.272)scale(1.02859)"/><path d="M371.76 534.644c-3.066-.758-4.941-3.958-4.941-3.958l-2.487-2.925-1.458-14.065s5.434 5.121 7.766 9.158c1.996 3.457.986 9.699 1.12 11.79z" style="fill:url(#X);fill-opacity:1;fill-rule:evenodd;stroke:#000;stroke-width:.81124282px;stroke-linecap:butt;stroke-linejoin:miter;stroke-opacity:1" transform="translate(79.126 -394.272)scale(1.02859)"/><path d="M367.133 531.82c-3.807-.755-6.136-3.941-6.136-3.941l-3.088-2.912-1.81-14.004s6.748 5.098 9.644 9.118c2.479 3.442 1.224 9.656 1.39 11.739z" style="fill:url(#Y);fill-opacity:1;fill-rule:evenodd;stroke:#000;stroke-width:.9020803px;stroke-linecap:butt;stroke-linejoin:miter;stroke-opacity:1" transform="translate(79.126 -394.272)scale(1.02859)"/><path d="M342.386 526.433s-2.82 4.175-7.762 7.702c-4.734 3.379-7.265 4.455-13.647 8.017.008-.006 3.242-10.719 6.162-13.388 1.197-1.094 4.777-1.565 7.869-1.808z" style="fill:url(#Z);fill-opacity:1;fill-rule:evenodd;stroke:#000;stroke-width:1.09824705px;stroke-linecap:butt;stroke-linejoin:miter;stroke-opacity:1" transform="translate(79.126 -394.272)scale(1.02859)"/><path d="M345.797 526.113s-6.032 5.679-9.776 10.936c-3.744 5.258-4.31 10.507-4.31 10.507s-1.551-11.744 1.018-16.086c1.044-1.765 4.956-4.305 4.956-4.305z" style="fill:url(#aa);fill-opacity:1;fill-rule:evenodd;stroke:#000;stroke-width:1.17076218px;stroke-linecap:butt;stroke-linejoin:miter;stroke-opacity:1" transform="translate(79.126 -394.272)scale(1.02859)"/><path d="M363.773 530.447c-4.338-5.058-10.892-4.741-10.892-4.741l1.12-6.802-.182-12.671s6.046 7.368 7.717 11.384c1.284 3.087 1.7 10.707 2.237 12.83z" style="fill:url(#ab);fill-opacity:1;fill-rule:evenodd;stroke:#000;stroke-width:.78486556px;stroke-linecap:butt;stroke-linejoin:miter;stroke-opacity:1" transform="translate(79.126 -394.272)scale(1.02859)"/><path d="M473.707 477.925c1.428 1.942 3.922 6.027 4.404 7.969l1.134 4.357-1.608 22.33-5.359-12.505.197-9.933z" style="fill:url(#ac);fill-opacity:1;fill-rule:evenodd;stroke:#000;stroke-width:1px;stroke-linecap:butt;stroke-linejoin:miter;stroke-opacity:1" transform="translate(-9.484 -402.068)scale(1.02859)"/><path d="M472.814 496.325c1.428 1.941 3.922 6.027 4.403 7.968l1.135 4.358-1.608 22.33-5.359-12.505.197-9.934z" style="fill:url(#ad);fill-opacity:1;fill-rule:evenodd;stroke:#000;stroke-width:1px;stroke-linecap:butt;stroke-linejoin:miter;stroke-opacity:1" transform="translate(-9.484 -402.068)scale(1.02859)"/><path d="M472.16 511.146c1.138 2.383 3.124 7.396 3.508 9.778l.903 5.348-2.29 36.748-3.259-1.955.157-34.926z" style="fill:url(#ae);fill-opacity:1;fill-rule:evenodd;stroke:#000;stroke-width:.98864204px;stroke-linecap:butt;stroke-linejoin:miter;stroke-opacity:1" transform="translate(-9.484 -402.068)scale(1.02859)"/><path d="M465.81 579.302s2.602-6.38 5.21-13.855c2.212-6.339 6.558-15.659 9.674-18.954 2.872-3.037 7.777-5.693 12.178-7.356 7.331-2.77 12.911-2.441 15.319-2.353 5.39.198 7.551 1.634 11.26 5.34 3.617 3.614 1.541 3.955 1.541 3.955l.699 7.507-5.107-1.81c-2.75-4.132.873-8.337-5.402-11.488-6.456-3.242-6.007-.608-12.737-.675-2.635-.026-10.769 2.828-15.077 7.083-3.956 3.906-9.92 15.615-11.498 20.542-2.64 8.24-6.245 12.416-6.06 12.064z" style="fill:url(#af);fill-opacity:1;fill-rule:evenodd;stroke:#000;stroke-width:1.00734866px;stroke-linecap:butt;stroke-linejoin:miter;stroke-opacity:1" transform="translate(-56.258 -390.634)scale(1.02859)"/><path d="M476.522 554.743s-1.104 7.153-1.178 9.113c-.243 6.488-4.795 8.103-9.168 14.87.005-.01-1.708-11.1-.184-15.233.625-1.694 3.624-5.199 6.422-6.997z" style="fill:url(#ag);fill-opacity:1;fill-rule:evenodd;stroke:#000;stroke-width:1.18805313px;stroke-linecap:butt;stroke-linejoin:miter;stroke-opacity:1" transform="translate(-56.258 -390.634)scale(1.02859)"/><path d="M478.348 551.975s-4.495 4.81-5.55 6.249c-3.486 4.76-7.854 3.585-14.702 6.385.009-.005 4.31-9.261 7.598-11.575 1.348-.949 5.466-2.013 8.561-1.897z" style="fill:url(#ah);fill-opacity:1;fill-rule:evenodd;stroke:#000;stroke-width:1.09824705px;stroke-linecap:butt;stroke-linejoin:miter;stroke-opacity:1" transform="translate(-56.258 -390.634)scale(1.02859)"/><path d="M485.088 544.978c-2.451 4.588-2.511 5.156-2.511 5.156l-3.141 5.053c-4.886-3.366-9.08-8.307-16.778-8.67 0 0 3.614-2.968 9.361-3.317s8.811.982 13.069 1.778z" style="fill:url(#ai);fill-opacity:1;fill-rule:evenodd;stroke:#000;stroke-width:1.30001915px;stroke-linecap:butt;stroke-linejoin:miter;stroke-opacity:1" transform="translate(-56.258 -390.634)scale(1.02859)"/><path d="M489.277 538.883c-2.764 3.697-2.87 4.173-2.87 4.173l-3.472 4.04-15.497-8.585s3.75-2.241 9.342-2.107 8.444 1.488 12.497 2.479z" style="fill:url(#aj);fill-opacity:1;fill-rule:evenodd;stroke:#000;stroke-width:1.18075073px;stroke-linecap:butt;stroke-linejoin:miter;stroke-opacity:1" transform="translate(-56.258 -390.634)scale(1.02859)"/><path d="M495.889 539.367c-4.035 2.955-4.702 1.676-4.702 1.676l-4.753 1.54-10.773-10.297s4.255-1.464 9.072-.459 8.058 5.992 11.156 7.54z" style="fill:url(#ak);fill-opacity:1;fill-rule:evenodd;stroke:#000;stroke-width:1.10064256px;stroke-linecap:butt;stroke-linejoin:miter;stroke-opacity:1" transform="translate(-56.258 -390.634)scale(1.02859)"/><path d="M485.927 544.652s2.122 8.872 2.242 14.075c.128 5.501-2.549 11.557-2.549 11.557s.823-4.044-2.707-9.054c-1.646-2.336-5.019-6.736-5.017-4.986 2.832-5.962 4.885-9.581 8.031-11.592z" style="fill:url(#al);fill-opacity:1;fill-rule:evenodd;stroke:#000;stroke-width:1px;stroke-linecap:butt;stroke-linejoin:miter;stroke-opacity:1" transform="translate(-56.258 -390.634)scale(1.02859)"/><path d="M495.964 539.94s-1.105 4.993-3.486 9.954c-2.144 4.466-4.578 10.589-4.578 10.589s-3.79-11.675-1.583-15.363c.897-1.499 4.11-3.573 4.11-3.573z" style="fill:url(#am);fill-opacity:1;fill-rule:evenodd;stroke:#000;stroke-width:1px;stroke-linecap:butt;stroke-linejoin:miter;stroke-opacity:1" transform="translate(-56.258 -390.634)scale(1.02859)"/><path d="M504.294 536.958c-1.087 2.028-6.194 1.781-6.194 1.781l-4.891 2.318-6.793-12.892s5.706.58 10.054 3.042 7.009 5.896 7.824 5.75z" style="fill:url(#an);fill-opacity:1;fill-rule:evenodd;stroke:#000;stroke-width:1.11059558px;stroke-linecap:butt;stroke-linejoin:miter;stroke-opacity:1" transform="translate(-56.258 -390.634)scale(1.02859)"/><path d="M506.088 537.43s-5.18 4.823-8.396 9.288c-3.215 4.466-1.429 13.22-1.429 13.22s-5.78-14.89-3.572-18.579c.896-1.498 6.43-3.036 6.43-3.036z" style="fill:url(#ao);fill-opacity:1;fill-rule:evenodd;stroke:#000;stroke-width:1px;stroke-linecap:butt;stroke-linejoin:miter;stroke-opacity:1" transform="translate(-56.258 -390.634)scale(1.02859)"/><path d="M479.349 552.565s1.173 6.262 2.091 7.791c3.036 5.06.258 8.63.184 16.029-.001-.01-6.866-7.564-7.723-11.493-.351-1.61.264-5.82 1.572-8.627z" style="fill:url(#ap);fill-opacity:1;fill-rule:evenodd;stroke:#000;stroke-width:1.09824705px;stroke-linecap:butt;stroke-linejoin:miter;stroke-opacity:1" transform="translate(-56.258 -390.634)scale(1.02859)"/><path d="M90.791 588.355s2.557 4.278 3.381 5.35c2.73 3.548.977 6.4 1.593 11.906-.002-.007-5.82-5.138-6.818-7.999-.408-1.172-.33-4.346.393-6.526z" style="fill:url(#aq);fill-opacity:1;fill-rule:evenodd;stroke:#000;stroke-width:.82362968px;stroke-linecap:butt;stroke-linejoin:miter;stroke-opacity:1" transform="translate(364.966 -411.942)scale(1.02859)"/><path d="M88.003 586.655s1.694 4.204 2.287 5.278c1.962 3.554-.068 5.976-.332 11.094 0-.007-4.547-5.353-5.03-8.086-.197-1.12.35-4.022 1.338-5.942z" style="fill:url(#ar);fill-opacity:1;fill-rule:evenodd;stroke:#000;stroke-width:.76137072px;stroke-linecap:butt;stroke-linejoin:miter;stroke-opacity:1" transform="translate(364.966 -411.942)scale(1.02859)"/><path d="M85.708 585.527c4.898-.814 4.189.238 4.189.238l.259 4.263c-3.073 3.002-7.058 5.168-8.658 10.883 0 0-1.308-3.31-.52-7.7s1.49-4.821 4.73-7.684z" style="fill:url(#as);fill-opacity:1;fill-rule:evenodd;stroke:#000;stroke-width:.94524229px;stroke-linecap:butt;stroke-linejoin:miter;stroke-opacity:1" transform="translate(364.966 -411.942)scale(1.02859)"/><path d="M87.582 576.333c1.45 2.944 1.713 3.162 1.713 3.162l1.445 3.507-10.134 7.284s-.238-3.122 1.573-6.682 3.535-4.972 5.403-7.271z" style="fill:url(#at);fill-opacity:1;fill-rule:evenodd;stroke:#000;stroke-width:.83366543px;stroke-linecap:butt;stroke-linejoin:miter;stroke-opacity:1" transform="translate(364.966 -411.942)scale(1.02859)"/><path d="M92.16 569.59c.614 3.395-.39 3.427-.39 3.427l-.49 3.417-9.735 3.616s.385-3.084 2.487-5.78c2.102-2.694 6.212-3.216 8.128-4.68z" style="fill:url(#au);fill-opacity:1;fill-rule:evenodd;stroke:#000;stroke-width:.76303142px;stroke-linecap:butt;stroke-linejoin:miter;stroke-opacity:1" transform="translate(364.966 -411.942)scale(1.02859)"/><path d="M89.342 582.992s2.844 3.437 3.924 4.057c3.573 2.054 3.09 5.209 5.558 9.776-.004-.006-6.761-2.262-8.62-4.377-.761-.866-1.815-3.664-1.971-5.84z" style="fill:url(#av);fill-opacity:1;fill-rule:evenodd;stroke:#000;stroke-width:.77078569px;stroke-linecap:butt;stroke-linejoin:miter;stroke-opacity:1" transform="translate(364.966 -411.942)scale(1.02859)"/><path d="M89.644 573.027s3.896 4.942 5.463 8.16c1.657 3.403 1.684 7.95 1.684 7.95s-1.47-1.387-5.158-3.513c-1.72-.992-4.297-4.157-3.794-3.063.099-4.534.373-7.381 1.805-9.534z" style="fill:url(#aw);fill-opacity:1;fill-rule:evenodd;stroke:#000;stroke-width:.69325995px;stroke-linecap:butt;stroke-linejoin:miter;stroke-opacity:1" transform="translate(364.966 -411.942)scale(1.02859)"/><path d="M93.299 568.09s1.604 3.133 2.502 6.808c.809 3.309 2.19 7.623 2.19 7.623s-7.2-4.53-7.632-7.455c-.175-1.188.65-3.696.65-3.696z" style="fill:url(#ax);fill-opacity:1;fill-rule:evenodd;stroke:#000;stroke-width:.69325995px;stroke-linecap:butt;stroke-linejoin:miter;stroke-opacity:1" transform="translate(364.966 -411.942)scale(1.02859)"/><path d="M97.043 563.091c.89 1.316-.936 4.356-.936 4.356l-.18 3.732-10.149.01s2.227-3.3 5.166-5.165c2.938-1.865 5.92-2.388 6.099-2.933z" style="fill:url(#ay);fill-opacity:1;fill-rule:evenodd;stroke:#000;stroke-width:.7699315px;stroke-linecap:butt;stroke-linejoin:miter;stroke-opacity:1" transform="translate(364.966 -411.942)scale(1.02859)"/><path d="M100.731 562.344s.195 2.8-.675 6.488c-.87 3.686.412 10.38.412 10.38s-7.752-7.861-7.324-10.786c.174-1.188 3.331-3.646 3.331-3.646z" style="fill:url(#az);fill-opacity:1;fill-rule:evenodd;stroke:#000;stroke-width:.69325995px;stroke-linecap:butt;stroke-linejoin:miter;stroke-opacity:1" transform="translate(364.966 -411.942)scale(1.02859)"/><path d="M94.07 605.088s-1.404-4.525-3.288-9.633c-1.598-4.332-3.354-11.18-3.12-14.295.216-2.87 1.701-6.43 3.351-9.24 2.749-4.684 5.916-6.956 7.259-7.965 3.007-2.258 4.81-2.444 8.454-2.104 3.552.33 2.578 1.422 2.578 1.422l3.689 3.676-3.563 1.278c-3.313-.986-3.205-4.805-7.993-3.725-4.926 1.111-3.521 2.311-7.195 5.227-1.439 1.141-4.585 6.221-5.042 10.366-.42 3.806 1.514 12.632 2.832 15.938 2.204 5.527 2.093 9.323 2.038 9.055z" style="fill:url(#aA);fill-opacity:1;fill-rule:evenodd;stroke:#000;stroke-width:.69835448px;stroke-linecap:butt;stroke-linejoin:miter;stroke-opacity:1" transform="translate(364.966 -411.942)scale(1.02859)"/><path d="M466.485 495.862c-7.155 4.383-6.254 2.816-6.254 2.816l-6.397 1.607-11.235 8.013s3.132-8.92 7.743-10.614c3.544-1.301 13.017-.924 16.143-1.822z" style="fill:url(#aB);fill-opacity:1;fill-rule:evenodd;stroke:#000;stroke-width:.74544108px;stroke-linecap:butt;stroke-linejoin:miter;stroke-opacity:1" transform="translate(-37.414 -392.64)scale(1.02859)"/><path d="M472.015 504.81c-8.1-3.35-9.923-5.233-9.923-5.233l-6.001-.16-5.921-9.623s10.206 2.52 14.028 4.505c2.937 1.525 6.166 9.332 7.817 10.51z" style="fill:url(#aC);fill-opacity:1;fill-rule:evenodd;stroke:#000;stroke-width:.73929572px;stroke-linecap:butt;stroke-linejoin:miter;stroke-opacity:1" transform="translate(-37.414 -392.64)scale(1.02859)"/><path d="M476.364 506.44c-6.5-4.139-11.865-5.93-11.865-5.93l-2.808-3.533-2.903-11.972s9.126 6.07 12.066 9.621c2.26 2.73 4.388 9.883 5.51 11.813z" style="fill:url(#aD);fill-opacity:1;fill-rule:evenodd;stroke:#000;stroke-width:.86603075px;stroke-linecap:butt;stroke-linejoin:miter;stroke-opacity:1" transform="translate(-37.414 -392.64)scale(1.02859)"/><path d="M477.621 507.972c-3.96-1.297-8.522-6.603-8.522-6.603l-3.514-2.272-.907-16.695s6.398 6.7 8.56 10.934c1.663 3.254 3.521 12.274 4.383 14.636z" style="fill:url(#aE);fill-opacity:1;fill-rule:evenodd;stroke:#000;stroke-width:.80504858px;stroke-linecap:butt;stroke-linejoin:miter;stroke-opacity:1" transform="translate(-37.414 -392.64)scale(1.02859)"/><path d="M482.018 510.446c-3.725-1.19-6.797-6.467-6.797-6.467l-3.801-1.025 2.883-20.843s5.055 7.2 6.353 11.89c.997 3.605.986 13.802 1.362 16.445z" style="fill:url(#aF);fill-opacity:1;fill-rule:evenodd;stroke:#000;stroke-width:.85986632px;stroke-linecap:butt;stroke-linejoin:miter;stroke-opacity:1" transform="translate(-37.414 -392.64)scale(1.02859)"/><path d="M484.325 513.102c-4.872-4.634-1.363-2.965-6.075-5.793l2.817-12.84 4.371-7.284s2.689 10.625 2.482 15.231c-.158 3.54-3.131 8.503-3.595 10.686z" style="fill:url(#aG);fill-opacity:1;fill-rule:evenodd;stroke:#000;stroke-width:.86603075px;stroke-linecap:butt;stroke-linejoin:miter;stroke-opacity:1" transform="translate(-37.414 -392.64)scale(1.02859)"/><path d="M492.392 519.122c-2.9-.895-7.508-8.857-7.508-8.857l.708-9.077 3.695-8.492s-.099 8.035.724 12.408c.632 3.361 2.199 11.532 2.38 14.018z" style="fill:url(#aH);fill-opacity:1;fill-rule:evenodd;stroke:#000;stroke-width:.74463081px;stroke-linecap:butt;stroke-linejoin:miter;stroke-opacity:1" transform="translate(-37.414 -392.64)scale(1.02859)"/><path d="M494.16 522.912c-2.9-.896-5.486-5.574-5.486-5.574l.96-10.845 2.432-12.029 2.24 11.903c.632 3.361-.328 14.058-.146 16.545z" style="fill:url(#aI);fill-opacity:1;fill-rule:evenodd;stroke:#000;stroke-width:.74463081px;stroke-linecap:butt;stroke-linejoin:miter;stroke-opacity:1" transform="translate(-37.414 -392.64)scale(1.02859)"/><path d="M449.118 503.235s3.966-4.3 13.465-3.537c4.395.352.536-.924 3.738.393 6.996 2.877 6.002 2.485 9.269 4.59 6.021 3.881 7.156 4.333 10.564 7.834 4.468 4.59 4.467 4.98 6.994 9.67 2.41 4.477 3.845 14.091 3.845 14.091l3.176 20.922-3.872-11.294c-.925-6.41-2.814-17.583-5.356-22.544-3.38-6.594-6.798-9.78-11.253-13.518-3.611-3.028-10.151-7.46-14.692-8.328-3.528-.674-.5-.682-6.683-.45-4.628.174-9.503 2.496-9.195 2.17z" style="fill:url(#aJ);fill-opacity:1;fill-rule:evenodd;stroke:#000;stroke-width:1.02149224px;stroke-linecap:butt;stroke-linejoin:miter;stroke-opacity:1" transform="translate(-37.414 -392.64)scale(1.02859)"/><path d="M586.215 559.475s-2.898-7.373-10.887-12.01c-6.592-3.824-7.46-3.25-10.824-3.211-7.351.086-6.313.09-10.03.829-6.849 1.361-10.01 2.085-12.398 3.328-5.57 2.9-8.201 2.622-10.851 4.159-4.647 2.694-7.743 10.193-7.743 10.193l-1.763 8.13 6.125-8.228c1.952-5.537 2.748-6.244 4.379-7.194 8.122-4.73 11.262-5.352 16.653-7.152 4.369-1.46 9.62-1.6 15.768-1.917 5.126-.265 4.79.072 10.255 2.539 4.09 1.846 11.471 10.945 11.316 10.534z" style="fill:url(#aK);fill-opacity:1;fill-rule:evenodd;stroke:#000;stroke-width:1px;stroke-linecap:butt;stroke-linejoin:miter;stroke-opacity:1" transform="translate(-62.376 -413.248)scale(1.02859)"/><path d="M574.445 546.472s-.697 1.237 2.409 4.549c2.975 3.173 4.565 4.183 8.576 7.528-.005-.005-2.037-9.059-3.873-11.565-.752-1.028-2.104-.128-3.597-1.028z" style="fill:url(#aL);fill-opacity:1;fill-rule:evenodd;stroke:#000;stroke-width:.84369159px;stroke-linecap:butt;stroke-linejoin:miter;stroke-opacity:1" transform="translate(-62.376 -413.248)scale(1.02859)"/><path d="M532.522 552.89c4.698.667 11.36-6.96 11.36-6.96l6.336-5.805 2.233-15.762s-8.576 5.552-11.897 10.263c-2.553 3.621-6.563 15.416-8.032 18.265z" style="fill:url(#aM);fill-opacity:1;fill-rule:evenodd;stroke:#000;stroke-width:1.06294191px;stroke-linecap:butt;stroke-linejoin:miter;stroke-opacity:1" transform="translate(-62.376 -413.248)scale(1.02859)"/><path d="M562.23 545.136s5.215 3.912 8.453 7.534 3.728 7.239 3.728 7.239 3.53-8.594 1.308-11.586c-.903-1.215-6.475-2.463-6.475-2.463z" style="fill:url(#aN);fill-opacity:1;fill-rule:evenodd;stroke:#000;stroke-width:.90367693px;stroke-linecap:butt;stroke-linejoin:miter;stroke-opacity:1" transform="translate(-62.376 -413.248)scale(1.02859)"/><path d="M540.312 549.655c4.717.563 11.407-5.874 11.407-5.874l6.363-4.897 2.243-13.3s-8.612 4.685-11.948 8.66c-2.564 3.055-6.59 13.008-8.065 15.411z" style="fill:url(#aO);fill-opacity:1;fill-rule:evenodd;stroke:#000;stroke-width:.97846204px;stroke-linecap:butt;stroke-linejoin:miter;stroke-opacity:1" transform="translate(-62.376 -413.248)scale(1.02859)"/><path d="M547.852 547.93c4.736.477 11.451-4.969 11.451-4.969l6.64-2.374 2-13.02s-8.646 3.963-11.994 7.326c-2.574 2.585-6.616 11.004-8.097 13.038z" style="fill:url(#aP);fill-opacity:1;fill-rule:evenodd;stroke:#000;stroke-width:.90168852px;stroke-linecap:butt;stroke-linejoin:miter;stroke-opacity:1" transform="translate(-62.376 -413.248)scale(1.02859)"/><path d="M554.128 546.715c6.806-1.92 11.782-1.928 11.782-1.928l3.629-2.524 7.033-10.694s-9.658 2.948-13.399 5.449c-2.875 1.923-7.39 8.185-9.045 9.697z" style="fill:url(#aQ);fill-opacity:1;fill-rule:evenodd;stroke:#000;stroke-width:.82191914px;stroke-linecap:butt;stroke-linejoin:miter;stroke-opacity:1" transform="translate(-62.376 -413.248)scale(1.02859)"/><path d="M560.899 546.513c7.602-1.324 11.645.186 11.645.186l5.077 1.221 8.348-11.854s-10.788 2.033-14.967 3.758c-3.211 1.326-8.256 5.645-10.103 6.689z" style="fill:url(#aR);fill-opacity:1;fill-rule:evenodd;stroke:#000;stroke-width:.72143799px;stroke-linecap:butt;stroke-linejoin:miter;stroke-opacity:1" transform="translate(-62.376 -413.248)scale(1.02859)"/><path d="M568.863 546.527c6.318-.434 7.689 1.937 7.689 1.937l1.959 3.502 8.57-7.888s-8.417.008-11.965 1.01c-2.727.77-3.963.6-6.253 1.44z" style="fill:url(#aS);fill-opacity:1;fill-rule:evenodd;stroke:#000;stroke-width:.57324314px;stroke-linecap:butt;stroke-linejoin:miter;stroke-opacity:1" transform="translate(-62.376 -413.248)scale(1.02859)"/><path d="M516.926 553.895c2.381 2.608 1.65 3.811 1.65 3.811l-.437 3.47 14.534-4.12s-2.63-2.71-7.266-2.778c-4.636-.066-5.142-.946-8.481-.383z" style="fill:url(#aT);fill-opacity:1;fill-rule:evenodd;stroke:#000;stroke-width:.88905603px;stroke-linecap:butt;stroke-linejoin:miter;stroke-opacity:1" transform="translate(-13.382 -385.957)scale(1.02859)"/><path d="M522.336 584.86s-.146-12.242-.347-21.477c-.16-7.398-3.959-14.843-5.822-19.468-1.784-4.428-7.206-7.234-10.922-9.175-6.19-3.233-10.905-2.916-12.935-2.745-6.258.526-11.496 3.086-13.561 5.348-3.384 3.704-5.298 19.06-5.298 19.06l4.3 10.91 1.712-23.718c2.322-4.823 5.45-7.961 9.468-8.396 6.082-.658 5.925.175 11.608.098 2.225-.03 9.093 3.3 12.73 8.265 3.34 4.559 6.824 18.027 7.576 23.976 1.589 12.564 1.646 17.733 1.491 17.322z" style="fill:url(#aU);fill-opacity:1;fill-rule:evenodd;stroke:#000;stroke-width:1px;stroke-linecap:butt;stroke-linejoin:miter;stroke-opacity:1" transform="translate(-13.382 -385.957)scale(1.02859)"/><path d="M494.011 534.696c.603 1.898 3.854 1.28 3.854 1.28l2.01.752 3.626-9.49s-3.164.543-5.574 2.848-2.903 4.874-3.916 4.61z" style="fill:url(#aV);fill-opacity:1;fill-rule:evenodd;stroke:#000;stroke-width:.79994655px;stroke-linecap:butt;stroke-linejoin:miter;stroke-opacity:1" transform="translate(-13.382 -385.957)scale(1.02859)"/><path d="M497.862 535.434c.682 2.609 4.52.698 4.52.698l2.275 1.033 4.104-13.043s-3.58.746-6.308 3.914-3.445 7.761-4.591 7.398z" style="fill:url(#aW);fill-opacity:1;fill-rule:evenodd;stroke:#000;stroke-width:.99775887px;stroke-linecap:butt;stroke-linejoin:miter;stroke-opacity:1" transform="translate(-13.382 -385.957)scale(1.02859)"/><path d="M502.003 537.53c.767 2.631 4.372 2.312 4.372 2.312l3.453 3.007 4.795-16.729s-4.028.752-7.097 3.947-4.948 7.65-5.523 7.463z" style="fill:url(#aX);fill-opacity:1;fill-rule:evenodd;stroke:#000;stroke-width:1.06294191px;stroke-linecap:butt;stroke-linejoin:miter;stroke-opacity:1" transform="translate(-13.382 -385.957)scale(1.02859)"/><path d="M507.72 541.281c4.697.667 5.8 2.133 5.8 2.133l3.81 3.544 1.223-16.015s-4.028.752-7.097 3.947-2.268 3.542-3.737 6.391z" style="fill:url(#aY);fill-opacity:1;fill-rule:evenodd;stroke:#000;stroke-width:1.06294191px;stroke-linecap:butt;stroke-linejoin:miter;stroke-opacity:1" transform="translate(-13.382 -385.957)scale(1.02859)"/><path d="M523.745 568.37c-2.196 2.624-7.655 2.953-7.655 2.953 1.732 2.81 1.74 1.945 3.397 5.799l3.215 8.455s-.877-3.312-.52-8.5c.409-5.946 1.996-8.8 1.563-8.708z" style="fill:url(#aZ);fill-opacity:1;fill-rule:evenodd;stroke:#000;stroke-width:1.02741265px;stroke-linecap:butt;stroke-linejoin:miter;stroke-opacity:1" transform="translate(-13.382 -385.957)scale(1.02859)"/><path d="M511.142 546.495s1.95 3.037 4.749 7.686c1.198 1.991 1.135 10.524-1.088 16.998-2.746 7.998-7.562 14.106-7.562 14.106s6.193-5.314 9.881-13.39c2.845-6.233 3.581-15.195 2.67-17.892-.558-1.646-3.393-5.9-3.393-5.9z" style="fill:url(#ba);fill-opacity:1;fill-rule:evenodd;stroke:#000;stroke-width:.97466606px;stroke-linecap:butt;stroke-linejoin:miter;stroke-opacity:1" transform="translate(-13.382 -385.957)scale(1.02859)"/><path d="M511.442 543.41c4.035 2.954 4.197 4.707 4.197 4.707l1.469 4.824 10.773-12.318s-4.255-1.464-9.072-.459-4.27 1.697-7.367 3.245z" style="fill:url(#bb);fill-opacity:1;fill-rule:evenodd;stroke:#000;stroke-width:1.10064256px;stroke-linecap:butt;stroke-linejoin:miter;stroke-opacity:1" transform="translate(-13.382 -385.957)scale(1.02859)"/><path d="M514.329 548.847c3.008 2.342 2.647 3.733 2.647 3.733l-.01 3.825 13.99-9.768s-3.66-1.16-8.588-.363-4.604 1.345-8.04 2.573z" style="fill:url(#bc);fill-opacity:1;fill-rule:evenodd;stroke:#000;stroke-width:.96102697px;stroke-linecap:butt;stroke-linejoin:miter;stroke-opacity:1" transform="translate(-13.382 -385.957)scale(1.02859)"/><path d="M510.23 548.769s2.282 2.405 4.355 6.792c1.867 3.949.467 11.373.467 11.373s5.5-10.323 3.578-13.585c-.78-1.325-3.578-3.159-3.578-3.159z" style="fill:url(#bd);fill-opacity:1;fill-rule:evenodd;stroke:#000;stroke-width:.87749505px;stroke-linecap:butt;stroke-linejoin:miter;stroke-opacity:1" transform="translate(-13.382 -385.957)scale(1.02859)"/><path d="M506.182 542.399s2.62 2.72 5.002 7.681c2.144 4.466.536 12.862.536 12.862s6.315-11.674 4.109-15.363c-.897-1.498-4.109-3.572-4.109-3.572z" style="fill:url(#be);fill-opacity:1;fill-rule:evenodd;stroke:#000;stroke-width:1px;stroke-linecap:butt;stroke-linejoin:miter;stroke-opacity:1" transform="translate(-13.382 -385.957)scale(1.02859)"/><path d="M503.536 539.434s2.62 2.72 5.001 7.681c2.144 4.466.536 12.862.536 12.862s6.316-11.674 4.109-15.363c-.897-1.498-4.109-3.572-4.109-3.572z" style="fill:url(#bf);fill-opacity:1;fill-rule:evenodd;stroke:#000;stroke-width:1px;stroke-linecap:butt;stroke-linejoin:miter;stroke-opacity:1" transform="translate(-13.382 -385.957)scale(1.02859)"/><path d="M493.411 535.66s5.18 4.824 8.396 9.29c3.215 4.466 1.43 13.22 1.43 13.22s5.779-14.89 3.572-18.579c-.897-1.499-6.431-3.037-6.431-3.037z" style="fill:url(#bg);fill-opacity:1;fill-rule:evenodd;stroke:#000;stroke-width:1px;stroke-linecap:butt;stroke-linejoin:miter;stroke-opacity:1" transform="translate(-13.382 -385.957)scale(1.02859)"/><path d="M520.568 558.744c.366 3.298-2.758 9.147-2.758 9.147 2.888-.75 2.33-1.085 5.851-1.36l7.47-.163s-2.692-.336-5.85-2.68c-3.62-2.686-4.508-5.434-4.713-4.944z" style="fill:url(#bh);fill-opacity:1;fill-rule:evenodd;stroke:#000;stroke-width:.98256403px;stroke-linecap:butt;stroke-linejoin:miter;stroke-opacity:1" transform="translate(-13.382 -385.957)scale(1.02859)"/><path d="M520.306 562.851c.378 3.194-2.853 8.855-2.853 8.855 2.987-.725 3.148-1.915 6.237-.106l4.215 7.451s1.28-3.957-1.432-8.647c-2.22-3.837-5.956-8.026-6.167-7.553z" style="fill:url(#bi);fill-opacity:1;fill-rule:evenodd;stroke:#000;stroke-width:.98316425px;stroke-linecap:butt;stroke-linejoin:miter;stroke-opacity:1" transform="translate(-13.382 -385.957)scale(1.02859)"/><path d="M414.855 585.055s-.655-12.566.428-23.163c.78-7.636 6.52-6.323 6.52-6.323l.85 21.565-2.142 2.868z" style="fill:url(#bj);fill-opacity:1;fill-rule:evenodd;stroke:#000;stroke-width:1.06353271px;stroke-linecap:butt;stroke-linejoin:miter;stroke-opacity:1" transform="translate(44.718 -388.644)scale(1.02859)"/><path d="M414.35 591.876s-1.826-4.229 2.954-19.121 6.52-11.376 6.52-11.376l.597 21.566-.879 5.394z" style="fill:url(#bk);fill-opacity:1;fill-rule:evenodd;stroke:#000;stroke-width:1.06353271px;stroke-linecap:butt;stroke-linejoin:miter;stroke-opacity:1" transform="translate(44.718 -388.644)scale(1.02859)"/><path d="M414.35 597.181s-2.331 3.856 2.449-11.037c4.78-14.892 6.267-15.923 6.267-15.923l.597 21.566-.879 5.394z" style="fill:url(#bl);fill-opacity:1;fill-rule:evenodd;stroke:#000;stroke-width:1.06353271px;stroke-linecap:butt;stroke-linejoin:miter;stroke-opacity:1" transform="translate(44.718 -388.644)scale(1.02859)"/></svg>