<svg xmlns="http://www.w3.org/2000/svg" xml:space="preserve" width="600" height="300" style="shape-rendering:geometricPrecision;text-rendering:geometricPrecision;image-rendering:optimizeQuality;fill-rule:evenodd" viewBox="0 0 600 300"><defs><style>.fil2{fill:#fff}</style></defs><path d="M0 0h600v300H0z" style="fill:#fcd116"/><g id="Layer 1"><path d="M0 0h300v150H0zm300 150h300v150H300z" style="fill:#da251d"/><path d="m189 35-3 30 27 14-30 6-3 30-15-27-31 6 21-22-15-28 28 13zm-10 11" class="fil2"/><path d="M147 140c-31-5-55-32-55-66 0-33 25-61 58-66-2 0-12-1-15-1-38 0-68 30-68 67s30 67 68 67c4 0 8 0 12-1" class="fil2"/></g></svg>